<svg width="792" height="585" viewBox="0 0 792 585" fill="none" xmlns="http://www.w3.org/2000/svg">
<path d="M550.011 507.137C512.014 507.239 474.054 504.751 436.395 499.693C435.166 499.536 433.92 499.36 432.681 499.176C423.438 497.861 414.189 496.359 405.198 494.709C364.737 487.31 326.582 476.503 291.793 462.587C176.022 416.278 103.232 426.134 62.556 442.555C18.5355 460.328 1.61381 489.406 1.44795 489.698L0 488.876C0.16788 488.58 17.3079 459.069 61.8093 441.062C87.9012 430.504 118.17 425.89 151.782 427.343C193.739 429.16 241.053 440.498 292.411 461.041C327.097 474.915 365.146 485.692 405.498 493.072C414.467 494.717 423.694 496.217 432.921 497.528C434.154 497.712 435.389 497.886 436.615 498.042C538.697 512.084 637.175 503.616 701.816 494.041C755.096 486.148 789.384 476.92 789.724 476.828L790.16 478.435C789.82 478.527 755.445 487.78 702.06 495.688C651.722 503.185 600.905 507.012 550.011 507.137V507.137Z" fill="#BE6A15"/>
<path d="M551.124 157.082C521.775 157.083 493.202 155.709 465.635 152.963C402.289 146.655 344.136 133.043 292.793 112.505C177.022 66.1964 104.232 76.0515 63.556 92.4745C19.5355 110.247 2.61381 139.325 2.44795 139.616L1 138.794C1.16788 138.498 18.3079 108.988 62.8093 90.9806C88.9016 80.4222 119.17 75.806 152.782 77.2621C194.739 79.0787 242.053 90.416 293.411 110.959C409.364 157.341 538.392 159.163 626.214 152.531C721.404 145.338 790.042 126.932 790.724 126.747L791.16 128.353C790.477 128.539 721.716 146.981 626.376 154.188C600.849 156.118 575.714 157.082 551.124 157.082Z" fill="#BE6A15"/>
<path d="M377.519 270.949H374.906V292.827H377.519V270.949Z" fill="#F2F2F2"/>
<path d="M457.204 270.949H454.592V292.827H457.204V270.949Z" fill="#F2F2F2"/>
<path d="M404.951 142.636H402.339V164.514H404.951V142.636Z" fill="#F2F2F2"/>
<path d="M486.749 278.02V307.319C486.749 307.319 494.54 354.523 494.54 395.758C494.54 436.994 481.954 533.029 481.954 533.029C481.954 533.029 456.782 541.168 454.984 528.689C453.186 516.21 448.392 450.016 448.392 440.249C448.392 430.483 427.415 356.15 427.415 356.15L414.23 438.622C414.23 438.622 418.425 536.285 414.23 538.998C410.034 541.71 389.657 546.594 387.259 541.71C384.862 536.827 372.276 432.111 372.276 432.111C372.276 432.111 362.087 295.382 368.081 287.244C374.074 279.105 379.468 272.594 379.468 272.594C379.468 272.594 465.173 253.604 486.749 278.02Z" fill="#2F2E41"/>
<path d="M478.958 529.774L480.461 538.618C480.964 541.636 481.292 544.675 481.443 547.723C481.677 552.166 482.494 559.012 485.291 560.097C489.486 561.724 516.716 582.514 497.537 583.599C478.358 584.684 468.764 586.559 463.083 582.566C456.367 577.846 463.974 579.983 460.978 579.983C457.981 579.983 454.385 579.983 453.186 575.642C451.988 571.302 454.984 563.706 454.984 563.706V529.774H478.958Z" fill="#2F2E41"/>
<path d="M389.469 529.349L387.966 538.193C387.463 541.211 387.135 544.25 386.984 547.298C386.75 551.741 385.933 558.586 383.136 559.672C378.941 561.299 351.711 582.089 370.89 583.174C390.068 584.259 399.663 586.134 405.344 582.141C412.06 577.421 404.452 579.558 407.449 579.558C410.446 579.558 414.042 579.558 415.24 575.217C416.439 570.877 413.442 563.281 413.442 563.281V529.349H389.469Z" fill="#2F2E41"/>
<path d="M406.439 42.5432C406.439 42.5432 416.627 65.3313 423.819 69.1293C431.011 72.9273 427.415 90.2897 427.415 90.2897L409.435 113.078H395.051L377.671 85.9491C377.671 85.9491 376.472 68.0442 372.876 63.7036C369.28 59.363 406.439 42.5432 406.439 42.5432Z" fill="#FFB9B9"/>
<path opacity="0.1" d="M406.439 42.5432C406.439 42.5432 416.627 65.3313 423.819 69.1293C431.011 72.9273 427.415 90.2897 427.415 90.2897L409.435 113.078H395.051L377.671 85.9491C377.671 85.9491 376.472 68.0442 372.876 63.7036C369.28 59.363 406.439 42.5432 406.439 42.5432Z" fill="black"/>
<path d="M421.422 89.2046L448.392 94.6303L468.17 274.765C468.17 274.765 457.382 276.392 446.594 289.414C435.806 302.436 422.62 300.266 416.028 297.01C409.435 293.755 383.064 284.531 382.465 280.733C381.866 276.935 383.664 210.198 383.664 210.198L366.882 106.024L375.273 94.6303H390.256L402.243 103.854L421.422 89.2046Z" fill="#BE6A15"/>
<path d="M380.667 70.757C397.879 70.757 411.832 58.1252 411.832 42.5432C411.832 26.9611 397.879 14.3293 380.667 14.3293C363.455 14.3293 349.501 26.9611 349.501 42.5432C349.501 58.1252 363.455 70.757 380.667 70.757Z" fill="#FFB9B9"/>
<path d="M425.617 79.9807C425.617 79.9807 484.352 85.4064 489.746 96.8005C495.14 108.195 486.15 158.654 486.15 158.654C486.15 158.654 507.726 202.602 507.127 212.911C506.527 223.22 527.504 293.755 504.729 285.616C481.954 277.477 489.147 256.317 477.759 271.509C466.372 286.701 461.577 284.531 461.577 284.531C461.577 284.531 450.19 301.351 446.594 299.723C442.998 298.095 440.601 285.616 448.392 279.648C456.183 273.679 454.984 263.37 440.001 243.838C425.018 224.305 409.435 121.759 418.425 106.024C427.415 90.2896 425.617 79.9807 425.617 79.9807Z" fill="#F3CF7A"/>
<path d="M486.75 288.329L476.56 297.01L463.974 289.414L469.369 278.02L486.75 288.329Z" fill="#FFB9B9"/>
<path d="M382.465 89.2046C382.465 89.2046 336.916 104.397 336.916 120.674C336.916 136.951 364.485 208.028 364.485 208.028C364.485 208.028 364.485 226.476 363.286 230.816C362.088 235.157 343.23 273.015 359.69 276.392C369.964 278.501 378.406 284.039 379.169 291.856C380.074 301.138 372.225 312.853 372.876 314.915C374.074 318.713 381.266 324.139 380.667 321.426C380.068 318.713 385.462 279.648 393.852 262.285C402.243 244.923 390.256 128.27 387.859 113.078C386.702 105.012 384.899 97.0336 382.465 89.2046V89.2046Z" fill="#F3CF7A"/>
<path d="M358.492 287.243L369.28 310.575L377.371 295.654L368.081 276.934L358.492 287.243Z" fill="#FFB9B9"/>
<path d="M415.777 60.0229C415.777 60.0229 425.617 63.7037 431.61 63.7037C437.604 63.7037 462.176 75.0977 453.786 82.1512C445.395 89.2046 432.809 90.8323 426.816 101.141C420.822 111.45 417.826 113.078 417.826 113.078L407.155 100.102C407.155 100.102 422.021 84.864 421.422 79.9809C420.822 75.0978 415.777 60.0229 415.777 60.0229Z" fill="#BE6A15"/>
<path d="M376.052 73.0681C376.052 73.0681 368.68 75.6401 366.882 79.9807C365.084 84.3213 353.697 92.4598 358.492 94.6301C363.286 96.8004 384.263 105.482 388.458 107.109C392.654 108.737 400.472 102.491 400.472 102.491C400.472 102.491 389.957 97.0717 389.957 93.2737C389.957 89.4757 376.052 73.0681 376.052 73.0681Z" fill="#BE6A15"/>
<path d="M351.3 113.078L336.916 116.333C336.916 116.333 317.138 196.634 323.131 216.709C329.124 236.784 357.293 297.01 357.293 297.01L375.273 278.02C375.273 278.02 367.43 234.837 362.961 232.013C358.492 229.188 361.488 223.22 361.488 221.592C361.488 219.965 363.286 221.05 359.091 217.252C354.896 213.454 374.674 192.293 369.28 186.325C363.886 180.357 351.3 113.078 351.3 113.078Z" fill="#F3CF7A"/>
<path opacity="0.1" d="M493.042 127.998L484.352 98.4282C484.352 98.4282 507.726 113.62 512.521 135.866C517.315 158.111 535.895 202.602 523.908 222.135C511.921 241.668 490.945 298.095 483.753 297.01C476.561 295.925 459.18 282.361 458.581 280.19C457.981 278.02 489.746 228.103 484.951 224.305C480.157 220.507 481.355 210.741 484.951 208.571C488.547 206.4 492.743 196.091 489.746 196.634C486.749 197.177 477.759 191.751 479.557 185.783C481.355 179.814 470.567 139.664 470.567 139.664L493.042 127.998Z" fill="black"/>
<path d="M481.355 94.6304L489.746 96.8007C489.746 96.8007 513.12 111.993 517.914 134.238C522.709 156.484 541.288 200.975 529.302 220.507C517.315 240.04 496.338 296.468 489.146 295.382C481.954 294.297 464.574 280.733 463.974 278.563C463.375 276.392 495.14 226.476 490.345 222.678C485.55 218.88 486.749 209.113 490.345 206.943C493.941 204.773 498.136 194.464 495.14 195.006C492.143 195.549 483.153 190.123 484.951 184.155C486.749 178.187 475.961 138.036 475.961 138.036L481.355 94.6304Z" fill="#F3CF7A"/>
<path d="M404.852 17.0758L410.698 15.1515C410.698 15.1515 398.476 4.08704 381.471 5.04926L386.254 0.719648C386.254 0.719648 374.563 -3.12881 363.935 6.97345C358.349 12.284 351.885 18.5262 347.855 25.5581H341.595L344.208 30.2885L335.063 35.019L344.449 34.1693C343.56 38.2532 343.866 42.4767 345.337 46.4206L347.462 51.7122C347.462 51.7122 355.965 36.3182 355.965 34.394V39.2046C355.965 39.2046 361.81 34.8751 361.81 31.9887L364.998 35.3561L366.592 30.0644L386.254 35.3561L383.065 31.0266L395.287 32.4698L390.505 27.1781C390.505 27.1781 404.321 33.4319 404.852 38.7236C405.384 44.0153 412.292 50.7501 412.292 50.7501L415.48 45.9395C415.48 45.9395 420.263 24.2917 404.852 17.0758Z" fill="#2F2E41"/>
<path d="M403.645 45.6625C406.171 45.6625 408.218 42.7504 408.218 39.1582C408.218 35.5659 406.171 32.6538 403.645 32.6538C401.12 32.6538 399.073 35.5659 399.073 39.1582C399.073 42.7504 401.12 45.6625 403.645 45.6625Z" fill="#FFB9B9"/>
</svg>
