<svg width="40" height="40" viewBox="0 0 40 40" fill="none" xmlns="http://www.w3.org/2000/svg">
<g clip-path="url(#clip0)">
<path d="M20.605 24.9117C20.605 21.8317 19.14 19.555 16.1133 18.7017C18.3217 17.65 19.4733 16.0567 19.4733 13.5783C19.4733 8.69167 15.82 7.5 11.605 7.5H0V32.035H11.93C16.4033 32.035 20.605 29.8967 20.605 24.9117ZM5.41 11.6883H10.4867C12.4383 11.6883 14.195 12.235 14.195 14.4917C14.195 16.575 12.8283 17.4133 10.895 17.4133H5.41V11.6883ZM5.40833 27.8683V21.1117H11.305C13.6867 21.1117 15.1933 22.1017 15.1933 24.615C15.1933 27.0933 13.395 27.8683 11.1933 27.8683H5.40833Z" fill="#777777"/>
<path d="M31.327 32.4998C35.5837 32.4998 38.3404 30.5881 39.667 26.5248H35.347C34.882 28.0414 32.9654 28.8431 31.4787 28.8431C28.6104 28.8431 27.1037 27.1681 27.1037 24.3214H39.9587C40.3654 18.6248 37.192 13.7698 31.3254 13.7698C25.8937 13.7698 22.207 17.8398 22.207 23.1714C22.207 28.7048 25.7004 32.4998 31.327 32.4998ZM31.1737 17.4564C33.632 17.4564 34.8687 18.8964 35.0754 21.2514H27.1104C27.272 18.9164 28.827 17.4564 31.1737 17.4564Z" fill="#777777"/>
<path d="M26.1113 8.78809H36.0913V11.2047H26.1113V8.78809Z" fill="#777777"/>
</g>
<defs>
<clipPath id="clip0">
<rect width="40" height="40" fill="white"/>
</clipPath>
</defs>
</svg>
