<svg width="180" height="120" viewBox="0 0 180 120" fill="none" xmlns="http://www.w3.org/2000/svg">
<g clip-path="url(#clip0)">
<path d="M42.3404 41.5532C42.8193 42.0955 44.1136 42.3018 45.3233 42.6358C46.5325 42.9701 47.6575 43.4321 48.8669 44.1319C50.0764 44.832 51.3707 45.7696 52.1869 47.2243C53.0031 48.6788 53.3414 50.6499 53.5396 52.3182C53.7377 53.9868 53.7956 55.3525 54.2933 56.7279C54.7906 58.1032 55.7275 59.4882 56.9101 60.9217C58.0924 62.3553 59.5204 63.8379 61.1878 64.4924C62.8553 65.1464 64.7624 64.9726 66.4212 65.0316C68.0802 65.0906 69.4908 65.3821 70.3029 65.9471C71.115 66.5121 71.3286 67.3507 71.8755 67.9178C72.4226 68.4847 73.3029 68.7808 74.0512 69.1108C74.7994 69.4408 75.4156 69.8053 76.0016 70.2025C76.0796 71.7781 76.1741 73.3539 76.3187 75.0305C76.4636 76.7075 76.6579 78.4859 76.6688 79.7798C76.6797 81.0737 76.5074 81.8825 76.2282 82.7708C75.9491 83.6591 75.5634 84.6265 75.5583 85.4718C75.5531 86.3171 75.9284 87.0397 76.0396 87.7256C76.1508 88.4114 75.998 89.0606 75.8994 89.8341C75.801 90.608 75.757 91.5063 75.5493 92.3117C75.3422 93.117 74.9715 93.8292 74.6483 94.4939C74.3254 95.1584 74.0501 95.7754 73.5408 96.0123C73.0311 96.2489 72.2873 96.1057 71.5743 96.2266C70.8614 96.3474 70.1792 96.7323 69.8588 97.1753C69.5383 97.6183 69.5797 98.1199 70.0654 98.5064C70.551 98.8931 71.4814 99.1651 72.3204 99.2659C73.1594 99.3673 73.9071 99.2978 74.592 99.2878C75.2772 99.2782 75.9002 99.3282 76.3693 99.2187C76.8381 99.1093 77.1523 98.8406 77.3839 98.5124C77.8489 97.8424 77.9884 96.9617 77.8625 96.1487C78.8372 96.2305 79.8115 96.3167 80.6954 96.4174C81.579 96.5178 82.3721 96.6331 83.0135 96.624C83.6549 96.6149 84.1447 96.4825 84.5899 96.2849C85.0354 96.0878 85.4357 95.8259 85.4838 95.1442C85.5322 94.4623 85.2275 93.3611 85.1647 91.8803C85.1022 90.3996 85.2811 88.5393 85.4819 87.1013C85.6825 85.6635 85.9054 84.6486 85.8478 83.8646C85.7904 83.0807 85.452 82.5277 85.2721 81.8614C85.0919 81.1946 85.0696 80.4136 84.9269 79.1376C84.7842 77.8617 84.5209 76.0899 84.2254 74.3221C84.5973 73.9863 85.0473 73.7211 85.8586 73.411C86.6699 73.101 87.843 72.7461 89.4031 72.6801C90.9634 72.6143 92.9105 72.8367 94.6443 72.9753C96.3781 73.1138 97.8985 73.1682 99.7722 72.5939C101.646 72.02 103.874 70.8179 106.007 70.2878C108.139 69.7576 110.175 69.8992 111.1 70.3512C112.025 70.8033 111.839 71.5666 112.133 72.3315C112.427 73.0964 113.202 73.8631 113.919 74.8518C114.637 75.8401 115.296 77.0503 115.782 78.8002C116.269 80.5505 116.582 82.8413 116.776 84.455C116.969 86.0686 117.042 87.0062 117.057 87.9445C116.291 88.7622 115.509 89.5677 114.655 90.4449C113.801 91.3218 112.875 92.2698 112.264 92.7438C111.653 93.2172 111.355 93.2167 110.905 93.2613C110.455 93.3057 109.85 93.3952 109.419 93.5714C108.987 93.748 108.729 94.0118 108.574 94.4671C108.419 94.922 108.367 95.5684 108.667 95.9221C108.967 96.2761 109.62 96.3374 110.261 96.3732C110.903 96.409 111.533 96.4195 112.159 96.376C112.407 96.3688 112.664 96.5341 112.61 96.8109C112.556 97.0877 112.188 97.4758 112.19 97.8972C112.194 98.3183 112.566 98.7725 113.26 99.0421C113.954 99.3122 114.968 99.3979 115.931 99.466C116.893 99.5341 117.803 99.585 118.127 99.1037C118.452 98.6224 118.19 97.6102 118.252 96.6619C118.314 95.7136 118.7 94.8302 119.157 93.7466C119.613 92.6626 120.14 91.3787 120.605 90.3247C121.07 89.2702 121.473 88.4458 121.871 87.7934C122.269 87.1415 122.662 86.6627 123.107 86.2351C123.552 85.8074 124.049 85.432 124.111 84.6916C124.174 83.9515 123.801 82.8466 123.56 81.761C123.318 80.6751 123.206 79.6078 122.99 78.5961C122.774 77.5841 122.452 76.6273 122.437 75.788C122.421 74.9492 122.713 74.2268 122.765 73.0094C122.817 71.7915 122.63 70.0779 122.738 68.7831C122.845 67.4883 123.248 66.6123 123.454 65.6317C123.66 64.6516 123.67 63.5662 123.531 62.4968C123.875 62.3225 124.328 62.3516 124.79 62.7741C125.252 63.1967 125.724 64.0129 126.027 64.8526C126.33 65.6924 126.464 66.5558 126.588 67.2317C126.712 67.9076 126.828 68.3957 127.069 68.8228C127.31 69.2505 127.678 69.6177 128.071 69.8506C128.465 70.0835 128.886 70.182 129.445 70.2587C130.004 70.3359 130.705 70.3907 131.402 70.3949C131.363 69.8969 131.178 69.4034 130.877 69.0285C130.576 68.6536 130.159 68.3975 129.62 68.027C129.08 67.6566 128.418 67.1717 127.756 66.6883C127.528 65.8957 127.281 65.1071 127.052 64.3673C126.824 63.6269 126.616 62.9347 126.256 62.3532C125.897 61.7717 125.386 61.3015 124.352 60.7395C123.316 60.177 121.757 59.5235 120.616 58.6828C119.474 57.8419 118.749 56.8144 117.668 55.907C116.588 54.9994 115.152 54.2122 114.06 53.7957C112.97 53.3792 112.225 53.3337 111.469 52.9304C110.712 52.5274 109.945 51.7667 109.195 51.2091C108.445 50.6515 107.713 50.2973 106.898 49.4643C106.083 48.6313 105.186 47.3198 103.755 46.3999C102.322 45.48 100.356 44.9519 98.5951 44.617C96.8339 44.2821 95.2795 44.1403 94.4008 44.3028C93.5229 44.4654 93.3204 44.9321 92.9076 45.1351C92.4944 45.3384 91.8709 45.2775 91.2901 45.4395C90.7088 45.6013 90.1717 45.9857 89.7154 46.4994C89.259 47.0128 88.8837 47.6556 88.6578 48.3315C88.0395 48.2676 87.4133 48.2676 86.6542 48.3376C85.8951 48.4075 85.0022 48.5477 83.8482 48.9433C82.6939 49.3391 81.2781 49.9901 79.8575 50.4719C78.4368 50.9532 77.0113 51.2651 75.5555 52.053C74.0996 52.8412 72.6134 54.1055 71.1854 54.7129C69.7574 55.3202 68.3878 55.2707 67.1558 54.8581C65.9235 54.4456 64.829 53.6695 63.8609 51.8492C62.8928 50.0289 62.0507 47.1641 61.6844 45.1039C61.318 43.044 61.4273 41.7882 61.7412 40.9166C62.0548 40.045 62.5734 39.5577 63.2393 39.3034C62.729 39.0038 62.1785 38.7577 61.5996 38.5703C60.9734 38.3667 60.2436 38.2029 59.6302 37.9361C59.0167 37.669 58.5199 37.2988 57.7469 37.0654C56.9742 36.8321 55.9256 36.7354 53.9826 36.7881C52.0401 36.8409 49.2029 37.0433 47.3743 37.1184C45.5456 37.1937 44.7256 37.1417 44.0867 37.4761C43.4477 37.8106 42.9903 38.5318 42.5934 39.3318C42.1972 40.132 41.8612 41.011 42.3404 41.5532ZM81.2607 85.9596C81.4782 87.9275 81.8945 90.0179 81.7331 91.1647C81.5719 92.3114 80.8335 92.5144 80.1331 92.8174C79.4327 93.1212 78.77 93.5256 78.1283 93.9528C78.7814 91.6353 79.303 89.2853 79.5126 87.6807C79.7221 86.0761 79.6194 85.2159 79.8162 84.1105C80.0129 83.0051 80.5095 81.6538 80.7672 81.9007C81.0248 82.1475 81.0433 83.9922 81.2607 85.9596ZM114.944 93.4633C116.063 92.0811 117.263 90.748 118.539 89.4689C118.099 90.3928 117.673 91.322 117.216 92.5104C116.759 93.6992 116.27 95.1474 115.772 95.7499C115.274 96.3518 114.768 96.1076 114.163 96.2115C113.557 96.3154 112.854 96.7676 112.938 96.38C113.022 95.9923 113.892 94.7653 114.944 93.4633ZM28.2099 105.458C26.1913 107.218 24.6794 109.27 23.8958 110.798C23.1119 112.326 23.0568 113.33 23.2106 114.22C23.3642 115.11 23.7273 115.887 24.6734 116.483C25.6198 117.078 27.1491 117.491 28.5728 117.367C29.9964 117.243 31.3135 116.58 32.5872 115.966C33.8608 115.351 35.0901 114.786 36.2985 114.189L32.0123 119.997H33.8203C34.8335 118.384 35.8484 116.77 37.0125 115.004C38.1765 113.238 39.489 111.318 40.0231 110.208C40.5572 109.099 40.3126 108.8 39.348 108.678C38.3831 108.556 36.6983 108.612 35.1529 108.863L34.4342 109.815L38.5638 109.859L37.6069 111.596C36.8763 112.129 36.1164 112.633 35.3002 113.137C34.4843 113.642 33.6121 114.148 32.3904 114.707C31.1692 115.266 29.5983 115.879 28.2271 115.904C26.8559 115.929 25.6842 115.367 25.2053 114.499C24.7261 113.631 24.94 112.457 25.7372 111.016C26.5343 109.575 27.915 107.866 29.623 106.366C31.3309 104.866 33.3664 103.575 35.4698 102.437C37.5732 101.299 39.7442 100.314 41.2894 99.7166C42.8345 99.1188 43.7534 98.9073 44.3758 99.0437C44.998 99.1804 45.3236 99.6652 45.2942 100.199C45.2649 100.732 44.8806 101.315 44.1272 102.105C43.3735 102.894 42.2507 103.891 41.2935 104.595C40.3362 105.299 39.5453 105.71 39.2482 106.031C38.9509 106.352 39.1477 106.583 39.3985 106.705C39.6494 106.827 39.9541 106.842 41.0918 106.126C42.2298 105.411 44.2008 103.965 45.4119 102.642C46.623 101.318 47.0739 100.117 47.0052 99.3022C46.9364 98.4873 46.3482 98.0597 45.3872 97.9214C44.4264 97.7829 43.0933 97.9342 41.8868 98.197C40.6806 98.4599 39.6013 98.8348 38.5212 99.2815C37.4408 99.7282 36.3596 100.246 34.5563 101.239C32.754 102.231 30.2285 103.698 28.2099 105.458ZM50.735 108.833C50.826 108.991 50.8785 109.158 50.8931 109.346C50.9076 109.53 50.8839 109.731 50.8105 109.958C50.5795 110.647 49.9432 111.529 48.6579 112.326C48.2356 112.588 47.7349 112.845 47.1204 113.101C46.5059 113.358 45.7783 113.611 45.0412 113.827C44.3074 114.043 43.5595 114.221 42.8014 114.362C42.8179 114.495 42.8943 114.619 43.0764 114.743C43.424 114.975 43.9168 115.094 44.3829 115.097H48.777C48.8794 115.097 48.9809 115.114 49.0756 115.147C49.1702 115.181 49.2562 115.23 49.3284 115.292C49.5983 115.556 49.6886 115.869 49.3284 116.235C49.182 116.36 48.9838 116.43 48.777 116.43H44.3799C44.0581 116.43 43.7369 116.394 43.4287 116.327C43.13 116.264 42.8416 116.169 42.5695 116.046C42.3294 115.938 42.1081 115.802 41.9121 115.641C41.5074 115.301 41.3329 114.955 41.2622 114.58C41.225 114.373 41.2228 114.148 41.2657 113.895C41.3081 113.643 41.3954 113.363 41.5525 113.033C41.862 112.376 42.4706 111.51 43.2661 110.714C44.4487 109.531 45.765 108.686 47.0541 108.277C47.4547 108.147 47.8368 108.063 48.1837 108.017C48.5305 107.972 48.8428 107.966 49.1208 107.991C49.3727 108.011 49.6197 108.064 49.8533 108.147C50.0499 108.217 50.2308 108.315 50.3879 108.438C50.5344 108.553 50.6504 108.686 50.735 108.833ZM43.3838 112.868C43.9953 112.724 44.5984 112.556 45.1912 112.363C45.699 112.199 46.1955 112.011 46.6785 111.799C47.1044 111.61 47.4547 111.425 47.7493 111.243C48.3119 110.896 48.7166 110.522 48.995 110.156C49.1254 109.984 49.2154 109.824 49.2684 109.704C49.3214 109.584 49.3377 109.503 49.3352 109.421C49.273 109.38 49.2002 109.352 49.0827 109.332C48.9651 109.313 48.8028 109.301 48.6 109.315C47.8659 109.372 46.9467 109.696 46.0849 110.251C45.7352 110.477 45.404 110.724 45.0937 110.988C44.3946 111.582 43.8059 112.231 43.3838 112.868ZM50.9037 116.127L55.016 108.857H56.7176L55.5832 111.159C55.9333 110.886 56.3132 110.642 56.8549 110.349C57.3966 110.055 58.1 109.71 58.9208 109.435C59.7416 109.159 60.6796 108.953 61.3359 109.011C61.9923 109.069 62.3677 109.392 62.4438 109.817C62.5199 110.243 62.2962 110.771 61.9233 111.526C61.5501 112.281 61.0275 113.263 60.7875 113.885C60.5475 114.507 60.5901 114.769 60.7472 114.892C60.9041 115.017 61.1756 115.003 61.4941 114.967C61.8127 114.93 62.1785 114.872 62.4421 114.964C62.706 115.055 62.868 115.298 62.8629 115.533C62.8577 115.768 62.6857 115.997 62.3391 116.158C61.9931 116.318 61.4726 116.412 60.9342 116.353C60.3955 116.294 59.8386 116.082 59.4921 115.797C59.1458 115.512 59.0102 115.155 58.973 114.825C58.9357 114.495 58.9972 114.191 59.1725 113.751C59.348 113.31 59.637 112.732 59.8405 112.318C60.0444 111.905 60.1626 111.655 60.2768 111.398C60.3906 111.141 60.5007 110.875 60.3765 110.787C60.2523 110.698 59.8941 110.787 59.5141 110.927C59.1341 111.067 58.7322 111.259 58.0437 111.624C57.3553 111.989 56.3809 112.527 55.6063 113.031C54.8314 113.535 54.1267 113.928 53.7434 114.521L52.7063 116.127H50.9037ZM75.2922 108.857L72.5982 113.34C72.2546 113.912 72.5175 114.624 72.8955 114.926C73.2739 115.23 74.0702 115.194 74.8668 115.158V116.369H73.0235C72.4123 116.369 71.8953 115.968 71.4933 115.665C71.0916 115.362 70.8525 114.957 70.613 114.552C69.9033 115.057 69.1315 115.495 68.3112 115.857C67.5578 116.187 66.8642 116.397 66.2124 116.33C65.5609 116.262 64.9516 115.917 64.7388 115.355C64.526 114.792 64.8187 114.065 65.1647 113.457L67.7771 108.857H69.4788C68.86 109.65 68.296 110.475 67.8853 111.182C67.4746 111.889 67.2172 112.478 66.9607 113.021C66.7041 113.564 66.4475 114.062 66.538 114.43C66.6285 114.798 67.0653 115.037 67.5499 114.963C68.0345 114.889 68.567 114.501 69.2807 113.918C69.9944 113.335 71.1177 112.695 71.7314 111.743L73.591 108.857H75.2922ZM82.5006 104.007C82.2673 103.892 82.0029 103.831 81.7337 103.831C81.4644 103.831 81.2 103.892 80.9667 104.007C80.7339 104.122 80.5405 104.287 80.4054 104.486C80.2714 104.685 80.1997 104.913 80.1997 105.142C80.1997 105.37 80.2714 105.599 80.4054 105.797C80.5404 105.996 80.7339 106.162 80.9667 106.277C81.2 106.392 81.4644 106.452 81.7337 106.453C82.0011 106.453 82.2688 106.391 82.5006 106.277C82.7325 106.163 82.9282 105.995 83.0619 105.797C83.1959 105.599 83.2676 105.37 83.2676 105.142C83.2676 104.913 83.1959 104.685 83.0619 104.486C82.9269 104.287 82.7334 104.122 82.5006 104.007ZM81.8149 108.857H79.9716L78.112 111.622C77.3988 112.682 76.7859 113.852 76.5767 114.614C76.3671 115.376 76.5332 115.714 77.1048 115.95C77.6766 116.185 78.6504 116.248 79.5463 116.248H81.3896V115.037H79.4044C78.9856 115.037 78.5866 114.883 78.5393 114.58C78.492 114.277 78.7967 113.744 79.1209 113.219L81.8149 108.857ZM82.3821 116.127L86.4941 108.857H88.1955L87.0613 111.159C87.4111 110.886 87.7911 110.642 88.3328 110.349C88.8744 110.055 89.5778 109.71 90.3984 109.435C91.2192 109.159 92.1571 108.953 92.8138 109.011C93.4704 109.069 93.8458 109.392 93.9216 109.817C93.9974 110.243 93.774 110.771 93.4009 111.526C93.0277 112.281 92.5053 113.263 92.2653 113.885C92.0253 114.507 92.0677 114.769 92.2251 114.892C92.3816 115.017 92.6534 115.003 92.972 114.967C93.2905 114.93 93.6563 114.872 93.92 114.964C94.1839 115.055 94.3462 115.298 94.341 115.533C94.3355 115.768 94.1632 115.997 93.817 116.158C93.471 116.318 92.9505 116.412 92.4118 116.353C91.8731 116.294 91.3162 116.082 90.97 115.797C90.624 115.512 90.4881 115.155 90.4508 114.825C90.4136 114.495 90.4747 114.191 90.6498 113.751C90.8254 113.31 91.1143 112.732 91.3181 112.318C91.522 111.905 91.6405 111.655 91.7543 111.398C91.8682 111.141 91.9783 110.875 91.8541 110.787C91.7299 110.698 91.3717 110.787 90.9914 110.927C90.6115 111.067 90.2095 111.259 89.521 111.624C88.8326 111.989 87.8585 112.527 87.0836 113.031C86.3087 113.535 85.6037 113.928 85.2207 114.521L84.1833 116.127H82.3821ZM105.468 108.833C105.558 108.991 105.611 109.158 105.626 109.346C105.64 109.53 105.617 109.731 105.543 109.958C105.312 110.647 104.676 111.529 103.391 112.326C102.968 112.588 102.468 112.845 101.853 113.101C101.238 113.358 100.511 113.611 99.7733 113.827C99.0396 114.043 98.2918 114.221 97.5337 114.362C97.5506 114.495 97.6267 114.619 97.8088 114.743C98.1569 114.975 98.6497 115.094 99.1153 115.097H103.51C103.612 115.097 103.714 115.114 103.808 115.147C103.903 115.181 103.989 115.23 104.061 115.292C104.331 115.556 104.421 115.869 104.061 116.235C103.915 116.36 103.716 116.43 103.51 116.43H99.1126C98.7908 116.43 98.4698 116.394 98.1618 116.327C97.8631 116.264 97.5745 116.169 97.3024 116.046C97.0622 115.938 96.8409 115.802 96.6447 115.641C96.2403 115.301 96.0655 114.955 95.9948 114.58C95.9576 114.373 95.956 114.148 95.9981 113.895C96.0411 113.643 96.1283 113.363 96.2854 113.033C96.595 112.376 97.2038 111.51 97.999 110.714C99.1813 109.531 100.498 108.686 101.787 108.277C102.152 108.157 102.53 108.07 102.916 108.017C103.263 107.972 103.576 107.966 103.853 107.991C104.105 108.011 104.352 108.064 104.586 108.147C104.796 108.223 104.974 108.322 105.121 108.438C105.268 108.553 105.383 108.686 105.468 108.833ZM98.1164 112.868C98.7446 112.72 99.364 112.546 99.9239 112.363C100.484 112.18 100.985 111.988 101.411 111.799C101.837 111.61 102.187 111.425 102.482 111.243C103.045 110.896 103.449 110.522 103.727 110.156C103.858 109.984 103.948 109.824 104.001 109.704C104.054 109.584 104.07 109.503 104.068 109.421C104.006 109.38 103.933 109.352 103.815 109.332C103.698 109.313 103.536 109.301 103.333 109.315C102.599 109.372 101.679 109.696 100.818 110.251C100.468 110.477 100.137 110.724 99.8263 110.988C99.1272 111.582 98.5385 112.231 98.1164 112.868ZM125.227 97.4807L127.457 97.4872L125.454 101.547L132.484 100.678L132.505 102.113L124.584 103.145L117.263 117.46H115.278L114.286 114.794L116.304 114.22L116.409 114.576L122.101 103.452L107.999 105.161L108.261 103.725L122.97 101.854L125.227 97.4807ZM130.876 110.189H132.861C132.426 110.753 131.999 111.322 131.529 111.928C131.061 112.533 130.55 113.176 130.278 113.705C130.007 114.234 129.976 114.647 130.238 114.882C130.502 115.117 131.06 115.174 131.548 115.056C132.035 114.938 132.452 114.645 133.251 114.052C134.05 113.458 135.229 112.564 136.182 111.771C137.135 110.977 137.862 110.284 138.574 109.575C139.287 108.867 139.984 108.142 140.66 107.403H142.361C141.99 107.852 141.679 108.345 141.517 108.716C141.355 109.086 141.341 109.335 141.396 109.782C141.451 110.229 141.572 110.874 141.612 111.502C141.652 112.129 141.609 112.74 141.472 113.288C141.337 113.835 141.107 114.322 140.718 114.781C140.328 115.239 139.78 115.669 139.202 115.96C138.623 116.252 138.017 116.43 137.4 116.43H135.06V115.218H137.398C137.82 115.218 138.228 115.066 138.625 114.801C139.021 114.536 139.406 114.136 139.667 113.656C140.181 112.701 140.239 111.446 139.887 110.305C138.934 111.255 137.938 112.175 137.097 112.891C136.257 113.608 135.574 114.121 134.786 114.691C133.999 115.261 133.107 115.889 132.273 116.192C131.44 116.496 130.664 116.476 130.087 116.327C129.621 116.209 129.205 115.977 128.889 115.661C128.65 115.423 128.55 115.224 128.531 115.014C127.833 115.541 127.051 115.993 126.369 116.29C125.688 116.587 125.107 116.729 124.49 116.726C123.874 116.723 123.222 116.575 122.808 116.196C122.395 115.817 122.218 115.208 122.406 114.385C122.593 113.562 123.143 112.525 123.987 111.624C124.832 110.723 125.971 109.957 127.085 109.372C128.199 108.787 129.289 108.382 130.363 108.132C131.438 107.881 132.499 107.785 133.159 107.734C133.82 107.683 134.08 107.679 134.34 107.697L134.36 109.03C133.231 109.015 132.098 109.126 131.072 109.346C130.045 109.567 129.125 109.895 128.134 110.395C127.142 110.895 126.078 111.566 125.303 112.304C124.528 113.042 124.042 113.847 123.994 114.426C123.947 115.005 124.337 115.359 124.996 115.297C125.655 115.235 126.583 114.758 127.465 114.001C128.347 113.245 129.183 112.208 129.745 111.527C130.306 110.845 130.592 110.519 130.876 110.189ZM150.869 108.978L150.16 110.069H147.91L146.19 113.34C145.992 113.715 145.754 114.084 145.669 114.356C145.586 114.627 145.61 114.78 145.716 114.897C145.953 115.157 146.471 115.185 146.899 115.158H148.459V116.369H146.615C145.896 116.369 145.143 116.398 144.588 116.194C144.033 115.989 143.686 115.652 143.601 115.262C143.516 114.873 143.693 114.431 143.991 113.832C144.289 113.232 144.78 112.504 145.182 111.743L146.063 110.069H143.921L144.63 108.978H146.637L148.884 104.979H150.586L148.484 108.978H150.869ZM160.058 108.833C160.15 108.991 160.202 109.158 160.217 109.346C160.231 109.53 160.208 109.731 160.134 109.958C159.903 110.647 159.267 111.529 157.981 112.326C157.559 112.588 157.058 112.845 156.444 113.101C155.829 113.358 155.101 113.611 154.364 113.827C153.631 114.043 152.883 114.221 152.125 114.362C152.142 114.495 152.217 114.619 152.4 114.743C152.748 114.975 153.24 115.094 153.707 115.097H158.1C158.203 115.097 158.304 115.114 158.399 115.147C158.494 115.181 158.58 115.23 158.652 115.292C158.922 115.556 159.012 115.869 158.652 116.235C158.505 116.36 158.307 116.43 158.1 116.43H153.703C153.382 116.43 153.061 116.394 152.753 116.327C152.445 116.261 152.15 116.164 151.893 116.046C151.653 115.938 151.432 115.801 151.235 115.641C150.831 115.301 150.656 114.955 150.586 114.58C150.547 114.353 150.548 114.122 150.589 113.895C150.632 113.643 150.719 113.363 150.876 113.033C151.186 112.376 151.795 111.51 152.59 110.714C153.772 109.531 155.089 108.686 156.377 108.277C156.742 108.157 157.121 108.07 157.507 108.017C157.854 107.972 158.166 107.966 158.444 107.991C158.696 108.011 158.943 108.064 159.177 108.147C159.373 108.217 159.554 108.315 159.712 108.438C159.858 108.553 159.974 108.686 160.058 108.833ZM152.707 112.868C153.335 112.72 153.954 112.546 154.515 112.363C155.075 112.18 155.577 111.988 156.002 111.799C156.428 111.61 156.778 111.425 157.073 111.243C157.636 110.896 158.04 110.522 158.318 110.156C158.449 109.984 158.539 109.824 158.592 109.704C158.645 109.584 158.661 109.503 158.659 109.421C158.597 109.38 158.524 109.352 158.406 109.332C158.289 109.313 158.127 109.301 157.924 109.315C157.19 109.372 156.27 109.696 155.409 110.251C155.059 110.477 154.728 110.724 154.418 110.988C153.718 111.582 153.13 112.231 152.707 112.868ZM32.0623 24.1687C31.3551 23.6443 30.5191 23.2504 29.633 23.0375C28.747 22.8246 27.8118 22.793 27.02 22.9055C26.2286 23.0177 25.5809 23.2738 25.1085 23.6292C24.6361 23.9846 24.3388 24.4385 24.2467 24.9275C24.1545 25.4163 24.2676 25.9397 24.3725 26.2679C24.4774 26.5963 24.5745 26.7295 24.6726 27.0553C24.7707 27.3814 24.8702 27.9004 24.6617 28.4429C24.4535 28.9856 23.9376 29.5517 23.2451 30.0654C22.5529 30.579 21.6845 31.0402 20.8259 31.2965C19.9676 31.5529 19.1188 31.6045 18.1852 31.445C16.2987 31.1501 14.0656 29.8379 12.8148 28.4101C11.5162 26.973 11.3635 25.5337 11.9783 24.0215C12.2848 23.2559 12.776 22.4748 13.5402 21.8177C14.3045 21.1609 15.3417 20.628 16.8417 19.9851C18.3417 19.342 20.3046 18.589 22.6127 18.3405C24.9207 18.092 27.5745 18.3484 30.0405 19.0431L24.3323 9.04927C23.6944 9.59592 22.9962 10.0884 21.9837 10.6804C20.9716 11.2726 19.6455 11.9645 18.4472 12.4342C17.2486 12.9042 16.178 13.1519 14.7674 13.4776C13.3571 13.8032 11.6064 14.2064 10.032 14.7305C8.45746 15.2544 7.05882 15.8996 5.8151 16.7401C4.57138 17.5802 3.48313 18.6157 2.60035 19.7332C1.71702 20.8506 1.03945 22.0499 0.602132 23.2908C0.169544 24.5187 -0.0322833 25.7975 0.00419029 27.0795C0.0394529 28.357 0.320912 29.6209 0.837232 30.8201C1.36369 32.0472 2.14645 33.2537 3.10479 34.341C4.06313 35.4283 5.19705 36.3965 6.42663 37.1591C7.65568 37.9214 8.98039 38.4781 10.4655 38.8599C11.9505 39.2418 13.596 39.4489 15.3555 39.4428C17.1151 39.437 18.9891 39.2179 20.8672 38.7909C22.7453 38.364 24.628 37.729 26.2424 36.9494C27.8572 36.1699 29.2033 35.2453 30.3519 34.229C31.5005 33.2126 32.451 32.1042 33.0905 31.0904C33.73 30.0768 34.0584 29.1578 34.1459 28.3255C34.2331 27.493 34.0798 26.7474 33.714 26.0473C33.3482 25.3473 32.7698 24.6928 32.0623 24.1687ZM32.0286 28.1512C31.9373 29.0672 31.3527 30.1765 30.5136 31.2203C29.6746 32.2641 28.5812 33.2423 27.4674 34.0347C26.3539 34.8272 25.2202 35.4336 23.4998 36.0721C21.7793 36.7103 19.4724 37.3804 16.8096 37.5719C14.1469 37.7636 11.1284 37.4768 8.57732 36.1941C6.02656 34.9111 3.94327 32.6322 2.92704 30.4047C1.91108 28.177 1.96191 26.0004 2.52424 24.1633C3.08631 22.3263 4.15962 20.8283 5.40116 19.6032C6.64271 18.3779 8.05276 17.425 10.0458 16.6878C12.0389 15.9505 14.6146 15.4292 16.5384 14.9369C18.4618 14.4447 19.733 13.9817 20.8139 13.4964C21.8946 13.0111 22.785 12.5035 23.6058 11.9227L26.2596 16.5685C24.8381 16.3352 23.3693 16.3352 21.7399 16.6208C20.1103 16.9062 18.3197 17.4773 16.5403 18.1311C14.7614 18.7847 12.9934 19.5217 11.6244 20.9211C10.2554 22.3205 9.28561 24.382 9.53729 26.3032C9.78924 28.2244 11.2624 30.0052 13.1994 31.3242C15.1365 32.6432 17.5367 33.5006 19.7988 33.3339C22.0609 33.1675 24.1842 31.9773 25.4358 30.7589C26.6871 29.5406 27.0668 28.2948 26.9295 27.3052C26.7923 26.3158 26.1381 25.5832 26.3805 25.1455C26.6229 24.7079 27.7618 24.5659 28.734 24.7223C29.7062 24.8789 30.5117 25.334 31.1154 25.9232C31.7188 26.5124 32.1202 27.2352 32.0286 28.1512ZM67.3901 14.4693C67.1235 10.7752 67.4855 6.01479 68.4275 1.36151C67.514 1.44193 66.6022 1.53699 64.0634 1.79823C61.5246 2.05947 57.3585 2.48666 52.6802 3.34568C48.0018 4.20494 42.8114 5.49603 37.7341 7.04999L40.2324 13.2005L46.2632 11.7147C45.8873 12.3608 45.6209 12.9951 45.4288 13.5292C45.3326 13.7809 45.2323 14.0315 45.1279 14.2808H40.2283L35.4581 22.5327C36.6809 22.4673 37.9037 22.402 38.5889 22.3651C39.0647 22.3407 39.5403 22.314 40.0158 22.2849C39.4915 22.5252 38.9677 22.7658 38.0561 23.0672C37.1446 23.3684 35.8454 23.7303 34.5462 24.0924L35.7522 32.7496C36.5654 32.6629 37.3568 32.4737 39.2626 31.8555C41.1687 31.2375 44.1886 30.1902 46.5893 28.4106C48.9903 26.6305 50.7725 24.1178 51.6889 21.4059L57.0438 21.0287C57.1218 21.761 57.1998 22.4931 57.1109 23.592C57.0218 24.6909 56.7655 26.1561 56.5095 27.6215L70.4222 25.4512C70.0461 24.7932 69.7471 24.1059 69.1497 22.4488C68.552 20.7911 67.6567 18.1634 67.3901 14.4693ZM59.0246 25.3812C59.1494 24.6103 59.2741 23.8391 59.2679 22.7869C59.2616 21.7345 59.1238 20.4011 58.986 19.0677L50.1109 19.6927C49.5427 21.325 48.7291 22.8872 47.6906 24.3404C46.6842 25.7435 45.5108 26.96 43.813 28.0082C42.1151 29.0562 39.8926 29.9359 37.5751 30.4582L36.8662 25.3689C38.3798 24.9577 39.8578 24.4283 40.876 23.9555C41.8941 23.4828 42.4526 23.0672 42.9006 22.6884C43.3487 22.3098 43.6866 21.9679 43.8926 21.4949C44.0986 21.0219 44.1728 20.4179 44.0929 19.8361C43.3909 20.0097 42.6886 20.1831 41.8384 20.2972C40.9885 20.4116 39.9908 20.4667 38.9933 20.5218L41.5503 16.0981H46.236C46.5918 15.8057 46.8769 15.4557 47.1353 14.8865C47.3933 14.3173 47.624 13.5289 47.9692 12.873C48.3147 12.2172 48.7743 11.6937 48.8865 11.0981C48.9985 10.5024 48.7628 9.83415 48.3098 9.31865L41.581 10.9765L40.4612 8.21976C44.8588 7.03651 49.2561 5.85349 53.5018 5.05606C57.7472 4.25886 61.8409 3.84748 65.9341 3.43609C65.5134 5.96278 65.2741 8.50915 65.2177 11.0609C65.166 13.525 65.2998 15.8603 65.6737 18.0177C66.0477 20.175 66.662 22.1543 67.5165 24.0559L59.0246 25.3812Z" fill="white"/>
<path d="M58.69 10.6051C58.5038 9.74215 58.0502 8.84129 57.4259 8.042C56.6276 8.61166 55.9128 9.2629 55.1083 10.2082C54.3035 11.1532 53.4091 12.3917 52.8065 13.3698C52.2037 14.3478 51.8925 15.0655 51.6943 15.8083L58.9854 15.0704C58.8661 14.4233 58.7887 13.7707 58.7911 13.0321C58.7935 12.2934 58.8759 11.4681 58.69 10.6051ZM56.6752 12.5121C56.6716 12.8327 56.6704 13.1533 56.6717 13.4739L55.0605 13.637C55.5601 12.8937 56.0973 12.1693 56.6703 11.4658C56.679 11.6668 56.6842 11.8676 56.6842 12.0208C56.6836 12.1735 56.6785 12.2781 56.6752 12.5121ZM115.636 0.463938L100.377 0.0741699C100.163 0.353771 99.9437 0.629886 99.3884 1.31948C98.8331 2.00907 97.9436 3.11213 96.9923 4.14385C96.0516 5.16296 95.0385 6.13158 93.9586 7.04422C92.3996 5.62831 90.8414 4.21241 90.0409 3.03915C89.2411 1.8659 89.1995 0.935054 89.1582 0.00421143L72.5443 0.445577C73.027 1.27323 73.4828 2.11203 73.9794 3.04264C74.476 3.97302 75.0133 4.9952 75.3193 5.96718C75.6254 6.93893 75.6998 7.86024 75.5919 8.76784C75.5917 9.04745 75.5917 9.32705 75.5922 9.74517C75.5928 10.1633 75.5936 10.7197 75.6017 11.3686C75.6099 12.0175 75.6245 12.7592 75.6449 13.5008C75.6542 14.1356 75.6675 14.7708 75.7428 16.094C75.8183 17.4171 75.9561 19.4287 75.8561 20.9622C75.7564 22.496 75.4188 23.5516 74.8635 24.5257L85.8695 24.5092C85.6225 23.735 85.3828 22.959 85.1503 22.1815C84.9057 21.369 84.6478 20.503 84.5331 19.9033C84.4178 19.3037 84.4458 18.9704 84.4627 18.6675C84.4798 18.3851 84.4894 18.1024 84.4912 17.8197L84.504 12.5758L92.1441 19.514L100.409 12.4141C100.394 13.2082 100.38 14.0022 100.434 15.2126C100.486 16.4226 100.606 18.0491 100.163 19.71C99.7214 21.3708 98.7176 23.0661 97.3687 24.515L112.47 24.5327C111.889 23.7661 111.472 22.9136 111.212 21.8354C110.951 20.757 110.846 19.4531 110.862 18.423C110.878 17.3934 111.015 16.6376 111.173 15.3811C111.33 14.1247 111.508 12.3673 111.516 10.861C111.522 9.3547 111.359 8.0994 111.96 6.36532C112.561 4.63053 113.929 2.41766 115.636 0.463938ZM109.659 6.76066C109.345 8.45315 109.451 10.31 109.307 12.4912C109.163 14.6725 108.767 17.1782 108.684 18.9469C108.601 20.7154 108.831 21.7469 109.291 22.7107L101.12 22.701C101.598 22.0182 101.947 21.2755 102.155 20.4999C102.376 19.6883 102.47 18.7898 102.545 17.062C102.618 15.3342 102.401 12.7683 102.658 10.2228C102.667 9.51322 102.802 8.80875 102.53 8.65512C102.26 8.50149 101.575 8.83385 101.031 9.30148L92.1867 16.8995L85.5015 10.8285C85.0807 10.4466 84.8299 9.91902 84.3784 9.67149C83.9273 9.42397 83.4456 9.35889 83.064 9.5676C82.6822 9.77631 82.3829 10.2588 82.3818 10.7072L82.3642 17.8106C82.3625 18.473 82.2658 19.1326 82.3897 19.9463C82.5139 20.7605 82.8113 21.7276 83.1089 22.6947L77.5611 22.7028C77.8348 22.2519 77.9796 21.7569 77.9688 19.6697C77.9576 17.5826 77.791 13.9032 77.7434 11.4188C77.6959 8.93449 77.7682 7.64526 77.6211 6.59309C77.4744 5.54092 77.1083 4.72583 76.7827 4.02694C76.4568 3.32805 76.1711 2.74514 75.8548 2.17502L87.2159 1.8731C87.2676 2.35096 87.3195 2.82858 88.4279 4.13943C89.5365 5.45005 91.7021 7.59366 93.8675 9.73727C95.4241 8.36994 96.9809 7.00261 98.2507 5.69967C99.5205 4.39672 100.503 3.15815 101.486 1.91959L111.756 2.18176C110.71 3.53955 109.974 5.06818 109.659 6.76066ZM144.527 21.0289C143.962 21.643 143.197 22.1029 141.823 22.4841C140.448 22.8653 138.463 23.1674 136.786 23.2255C135.108 23.2836 133.738 23.0975 132.629 22.7284C131.519 22.3593 130.67 21.8078 130 21.1119C129.324 20.4047 128.842 19.5769 128.589 18.6894L140.802 20.8651L142.116 14.689L130.779 12.2669C131.244 11.4544 132.126 10.8289 133.354 10.6105C134.582 10.392 136.158 10.5805 137.667 10.9166C139.177 11.2526 140.621 11.7365 141.956 12.4378C143.291 13.139 144.517 14.0577 145.433 14.8875C146.351 15.7172 146.959 16.4579 147.426 17.263L154.11 10.2523C153.165 9.99711 152.237 9.7024 151.394 9.38283C150.552 9.06348 149.797 8.71927 147.293 7.53764C144.789 6.35602 140.535 4.33699 136.222 3.6883C131.909 3.03962 127.537 3.76082 124.375 5.22669C121.213 6.69256 119.26 8.90311 118.036 11.4144C116.812 13.9257 116.317 16.7378 117.188 19.624C118.058 22.5101 120.295 25.4705 123.631 27.3673C126.967 29.264 131.403 30.0977 135.437 30.2256C139.471 30.3534 143.102 29.7754 146.401 28.5305L144.527 21.0289ZM133.332 28.5089C129.903 28.2237 126.748 27.2536 124.44 25.8682C122.132 24.4827 120.671 22.6817 119.795 20.9481C118.92 19.2147 118.63 17.5487 118.863 15.8013C119.095 14.054 119.85 12.2258 120.85 10.7283C121.851 9.23082 123.097 8.06384 124.463 7.17065C125.828 6.27769 127.312 5.6583 129.555 5.36963C131.798 5.0812 134.8 5.12303 137.492 5.66411C140.185 6.20541 142.568 7.24549 144.387 8.11498C146.207 8.98469 147.462 9.68358 148.398 10.1545C149.334 10.6256 149.95 10.8685 150.585 11.0716L147.465 14.3431C147.031 13.8653 146.537 13.4283 145.772 12.8617C145.006 12.2948 143.968 11.5983 142.632 10.9442C141.296 10.2902 139.664 9.67916 137.814 9.3812C135.963 9.08347 133.894 9.09904 132.402 9.39026C130.911 9.68125 129.995 10.2477 129.274 10.9693C128.545 11.6991 128.025 12.5638 127.755 13.495L139.666 16.0398L139.099 18.7057L126.639 16.4861C126.3 17.2716 126.244 18.1353 126.539 19.1812C126.833 20.2271 127.479 21.4554 128.634 22.5399C129.79 23.6244 131.455 24.565 133.983 24.8969C136.51 25.2285 139.898 24.9515 142.987 24.0927L143.89 27.3603C140.466 28.3936 136.762 28.7939 133.332 28.5089ZM178.632 29.6192C177.535 28.485 175.841 27.853 174.245 27.9004C172.649 27.9478 171.153 28.6746 170.264 29.3816C169.374 30.0889 169.091 30.7766 169.19 31.4493C168.115 31.1752 167.039 30.9014 165.944 30.5161C164.848 30.1307 163.732 29.6341 162.616 29.1374C163.752 25.9351 165.128 22.7867 166.273 20.5164C167.418 18.2459 168.332 16.8533 169.62 15.8736C170.908 14.894 172.569 14.3276 174.265 14.2218C171.265 13.5448 168.266 12.868 165.518 11.8156C162.771 10.7632 160.275 9.33518 157.78 7.90719C158.182 9.16342 158.303 10.4845 158.088 11.8218C157.872 13.159 157.322 14.5123 156.584 16.3083C155.848 18.1039 154.925 20.3417 153.706 22.6254C152.487 24.9092 150.971 27.2387 149.491 28.96C148.01 30.6813 146.562 31.7942 144.913 32.6399C146.577 32.4928 148.258 32.5715 149.893 32.8733C151.597 33.1847 153.352 33.7435 155.434 34.4733C157.516 35.2031 159.924 36.1042 162.515 37.0157C165.106 37.9273 167.881 38.85 170.364 39.1293C172.847 39.4087 175.039 39.0447 176.718 38.0872C178.397 37.1296 179.565 35.5787 179.898 33.9845C180.231 32.3903 179.73 30.7539 178.632 29.6192ZM177.029 35.4408C176.417 36.1934 175.531 36.7517 174.593 37.1238C173.654 37.4959 172.663 37.6823 170.768 37.3583C168.873 37.0341 166.075 36.1999 163.144 35.2217C160.213 34.2434 157.15 33.1215 154.991 32.3938C152.832 31.6661 151.577 31.3328 150.302 31.0648C151.836 29.4365 153.178 27.6761 154.307 25.7368C155.437 23.7973 156.353 21.679 157.279 19.6186C158.205 17.5582 159.139 15.5561 159.654 14.2425C160.169 12.9291 160.264 12.3037 160.227 11.677L168.111 14.5109C167.619 14.9219 167.208 15.3958 166.333 16.8319C165.459 18.268 164.12 20.6661 162.983 23.0024C161.878 25.2631 160.919 27.5741 160.111 29.9248C161.304 30.6346 162.578 31.2408 164.155 31.84C165.734 32.4391 167.614 33.0311 168.922 33.2591C170.23 33.4869 170.966 33.3509 171.571 33.0035C171.138 32.2286 171.196 31.195 171.802 30.5351C172.408 29.8753 173.563 29.5894 174.55 29.6308C175.537 29.6719 176.357 30.0406 176.958 30.6225C177.558 31.2045 177.939 31.9994 177.96 32.8703C177.981 33.7416 177.642 34.6885 177.029 35.4408Z" fill="white"/>
</g>
<defs>
<clipPath id="clip0">
<rect width="180" height="120" fill="white"/>
</clipPath>
</defs>
</svg>
