<svg width="100" height="92" viewBox="0 0 100 92" fill="none" xmlns="http://www.w3.org/2000/svg">
<path d="M50 26.2857C36.5381 26.2857 25.5859 37.4522 25.5859 51.1775C25.5859 64.9028 36.5381 76.0693 50 76.0693C63.4619 76.0693 74.4141 64.9028 74.4141 51.1775C74.4141 37.4522 63.4619 26.2857 50 26.2857ZM50 68.1039C40.8459 68.1039 33.3984 60.5107 33.3984 51.1775C33.3984 41.8443 40.8459 34.2511 50 34.2511C59.1541 34.2511 66.6016 41.8443 66.6016 51.1775C66.6016 60.5107 59.1541 68.1039 50 68.1039Z" fill="#BE6A15"/>
<path d="M88.2812 14.3377H73.9111C73.4562 14.3377 73.0463 14.0846 72.8354 13.6751L68.8598 5.15758C68.8488 5.13428 68.8379 5.11118 68.8264 5.08808C67.2875 1.94972 64.1934 0 60.7518 0H39.5266C36.085 0 32.9908 1.94972 31.452 5.08828C31.4404 5.11138 31.4295 5.13448 31.4186 5.15777L27.4428 13.6757C27.2318 14.0846 26.8221 14.3377 26.3672 14.3377H11.7188C5.25703 14.3377 0 19.6976 0 26.2857V80.0519C0 86.6401 5.25703 92 11.7188 92H88.2812C94.743 92 100 86.6401 100 80.0519V26.2857C100 19.6976 94.743 14.3377 88.2812 14.3377ZM92.1875 80.0518C92.1875 82.2478 90.4352 84.0344 88.2812 84.0344H11.7188C9.56484 84.0344 7.8125 82.2478 7.8125 80.0518V26.2857C7.8125 24.0897 9.56484 22.303 11.7188 22.303H26.3672C29.8086 22.303 32.9027 20.3535 34.4418 17.2152C34.4533 17.1921 34.4643 17.1688 34.4754 17.1455L38.4512 8.62749C38.6619 8.21847 39.0717 7.96537 39.5266 7.96537H60.7518C61.2066 7.96537 61.6164 8.21847 61.8271 8.62729L65.8029 17.1453C65.8141 17.1686 65.825 17.1919 65.8365 17.215C67.3756 20.3533 70.4697 22.3028 73.9111 22.3028H88.2812C90.4352 22.3028 92.1875 24.0895 92.1875 26.2855V80.0518Z" fill="#BE6A15"/>
<path d="M84.375 30.2684H76.5625V38.2337H84.375V30.2684Z" fill="#BE6A15"/>
</svg>
