<svg width="101" height="92" viewBox="0 0 101 92" fill="none" xmlns="http://www.w3.org/2000/svg">
<path d="M79.5869 30.6669C72.6953 30.6669 67.0869 25.5072 67.0869 19.1669C67.0869 12.8266 72.6953 7.66693 79.5869 7.66693C86.4785 7.66693 92.0869 12.8266 92.0869 19.1669C92.0869 25.5072 86.4785 30.6669 79.5869 30.6669ZM79.5869 13.4169C76.1415 13.4169 73.3369 15.9964 73.3369 19.1669C73.3369 22.3367 76.1415 24.9169 79.5869 24.9169C83.0331 24.9169 85.8369 22.3367 85.8369 19.1669C85.8369 15.9964 83.0331 13.4169 79.5869 13.4169Z" fill="#BE6A15"/>
<path d="M79.5869 38.3331C77.8619 38.3331 76.4619 37.0451 76.4619 35.4581V27.7919C76.4619 26.2049 77.8619 24.9169 79.5869 24.9169C81.3119 24.9169 82.7119 26.2049 82.7119 27.7919V35.4581C82.7119 37.0451 81.3119 38.3331 79.5869 38.3331Z" fill="#BE6A15"/>
<path d="M79.5869 13.4169C77.8619 13.4169 76.4619 12.1289 76.4619 10.5419V2.875C76.4619 1.28799 77.8619 0 79.5869 0C81.3119 0 82.7119 1.28799 82.7119 2.875V10.5419C82.7119 12.1289 81.3119 13.4169 79.5869 13.4169Z" fill="#BE6A15"/>
<path d="M87.7164 17.7482C86.6369 17.7482 85.5871 17.2344 85.008 16.3107C84.1451 14.9343 84.6578 13.1788 86.1493 12.3814L93.3576 8.54834C94.8491 7.75097 96.7664 8.22616 97.6285 9.59839C98.4914 10.9748 97.9787 12.7303 96.4872 13.5276L89.2789 17.3607C88.7868 17.6254 88.2451 17.7482 87.7164 17.7482Z" fill="#BE6A15"/>
<path d="M64.2545 30.1685C63.1749 30.1685 62.1251 29.6547 61.5461 28.731C60.6832 27.3546 61.1959 25.5991 62.6874 24.8018L69.8957 20.968C71.3834 20.1748 73.2999 20.6465 74.1666 22.0187C75.0295 23.3952 74.5168 25.1506 73.0253 25.948L65.817 29.7811C65.3249 30.0457 64.7878 30.1685 64.2545 30.1685Z" fill="#BE6A15"/>
<path d="M71.4582 17.7484C70.9295 17.7484 70.3878 17.6256 69.8957 17.361L62.6874 13.5279C61.1959 12.7305 60.6832 10.975 61.5461 9.5986C62.4128 8.22637 64.3255 7.75469 65.817 8.54855L73.0253 12.3816C74.5168 13.179 75.0295 14.9345 74.1666 16.3109C73.5875 17.2346 72.5377 17.7484 71.4582 17.7484Z" fill="#BE6A15"/>
<path d="M94.9201 30.1685C94.3914 30.1685 93.8497 30.0457 93.3576 29.7811L86.1493 25.948C84.6578 25.1506 84.1451 23.3952 85.008 22.0187C85.8747 20.6465 87.7866 20.1748 89.2789 20.968L96.4872 24.8018C97.9787 25.5991 98.4914 27.3546 97.6285 28.731C97.0449 29.6547 95.9951 30.1685 94.9201 30.1685Z" fill="#BE6A15"/>
<path d="M37.9199 69C31.0283 69 25.4199 63.8403 25.4199 57.5C25.4199 51.1597 31.0283 46 37.9199 46C44.8116 46 50.4199 51.1597 50.4199 57.5C50.4199 63.8403 44.8116 69 37.9199 69ZM37.9199 51.75C34.4745 51.75 31.6699 54.3295 31.6699 57.5C31.6699 60.6705 34.4745 63.25 37.9199 63.25C41.3661 63.25 44.1699 60.6705 44.1699 57.5C44.1699 54.3295 41.3661 51.75 37.9199 51.75Z" fill="#BE6A15"/>
<path d="M42.2331 92H33.608C31.0621 92 28.8702 90.2523 28.5116 87.9332L27.4038 80.7758C25.2409 79.963 23.187 78.8667 21.2705 77.5099L13.9829 80.2122C11.6201 81.0826 8.8743 80.2164 7.59943 78.1886L3.2873 71.3079C2.01624 69.2801 2.56632 66.662 4.57056 65.2167L10.7534 60.7505C10.6039 59.6808 10.5284 58.5922 10.5284 57.5C10.5284 56.3959 10.6077 55.2995 10.758 54.2186L4.58658 49.7875C2.57471 48.3423 2.02006 45.7199 3.29111 43.6886L7.60325 36.8156C8.87049 34.7878 11.6201 33.9251 13.9784 34.7878L21.2995 37.4936C23.1741 36.1635 25.2409 35.0594 27.4038 34.2354L28.5116 27.0746C28.8748 24.7477 31.0621 23 33.608 23H42.2285C44.7744 23 46.9663 24.7477 47.3242 27.0668L48.4327 34.2242C50.5995 35.037 52.6495 36.1333 54.5706 37.4901L61.8536 34.7878C64.2164 33.9174 66.9622 34.7836 68.2371 36.8114L72.5492 43.6921C73.8203 45.7199 73.2702 48.338 71.266 49.7833L65.0831 54.2495C65.2326 55.3192 65.3074 56.4078 65.3074 57.5035C65.3074 58.6076 65.2288 59.704 65.0785 60.7849L71.2492 65.2167C73.2618 66.662 73.8157 69.2836 72.5454 71.3156L68.2325 78.1886C66.966 80.2164 64.2202 81.0826 61.8574 80.2164L54.537 77.5099C52.6617 78.8442 50.5949 79.9441 48.4327 80.7681L47.3242 87.9332C46.9663 90.2523 44.7782 92 42.2331 92ZM34.5663 86.25H41.2741L42.5077 78.2651C42.6786 77.18 43.5034 76.2759 44.6371 75.9383C47.2662 75.1522 49.7747 73.8144 51.8827 72.0708C52.7662 71.338 54.0289 71.1275 55.1367 71.5416L63.2994 74.5542L66.6532 69.2071L59.7784 64.2699C59.02 63.7252 58.5745 62.8899 58.5745 62.0041V61.9655C58.5745 61.7704 58.5951 61.5788 58.637 61.3871C58.9163 60.1293 59.062 58.8224 59.062 57.5C59.062 56.1776 58.9201 54.8707 58.637 53.6129C58.3998 52.5432 58.8369 51.4475 59.77 50.7722L66.6578 45.8007L63.3039 40.4493L55.1824 43.4626C54.0785 43.8683 52.8288 43.6697 51.9453 42.9488C49.7328 41.147 47.2784 39.8436 44.6493 39.0694C43.5118 38.7318 42.6786 37.827 42.5077 36.7384L41.2741 28.75H34.5663L33.3288 36.7349C33.1579 37.82 32.3324 38.7241 31.1994 39.0617C28.5658 39.8478 26.0618 41.1856 23.9538 42.9292C23.0657 43.662 21.8038 43.8725 20.6991 43.4584L12.5372 40.4458L9.18253 45.7929L16.0574 50.7301C16.8157 51.2748 17.2621 52.1101 17.2621 52.9959C17.2621 53.191 17.2415 53.4212 17.1995 53.6129C16.9203 54.8707 16.7784 56.1776 16.7784 57.5C16.7784 58.8224 16.9203 60.1293 17.2033 61.3871C17.4414 62.4568 17.0034 63.5525 16.0703 64.2278L9.18253 69.1993L12.5372 74.5507L20.6579 71.5374C21.7497 71.1317 23.0039 71.3233 23.8951 72.0512C26.1122 73.853 28.5658 75.1599 31.191 75.9306C32.3286 76.2682 33.1617 77.173 33.3326 78.2616L34.5663 86.25ZM67.4078 69.7475H67.4497H67.4078Z" fill="#BE6A15"/>
</svg>
