<svg width="180" height="120" viewBox="0 0 180 120" fill="none" xmlns="http://www.w3.org/2000/svg">
<path fill-rule="evenodd" clip-rule="evenodd" d="M26.377 41.2702L44.2112 50.6576L46.3674 47.0151L28.3668 37.5477L26.377 41.2702Z" fill="white"/>
<path fill-rule="evenodd" clip-rule="evenodd" d="M47.7777 44.75C53.833 35.9293 46.6171 30.3467 46.6171 30.3467C46.6171 30.3467 43.1327 26.9475 37.3269 28.3232C31.5212 29.6988 29.6133 35.2015 29.6133 35.2015L33.0977 37.0627L34.5079 35.4449C34.5079 35.4449 38.1574 30.4266 42.8024 33.098C47.4475 35.7682 45.7891 40.3808 44.2958 42.9698L47.7777 44.75Z" fill="white"/>
<path fill-rule="evenodd" clip-rule="evenodd" d="M47.3629 14.2418C47.3629 14.2418 40.1145 20.6099 46.4505 28.4841C52.5058 36.009 60.3857 31.1542 60.3857 31.1542L57.7317 27.4317C57.7317 27.4317 52.9203 29.6986 50.0169 25.4905C46.9724 21.0778 50.2664 17.3988 50.2664 17.3988L47.3629 14.2418Z" fill="white"/>
<path fill-rule="evenodd" clip-rule="evenodd" d="M71.6203 1.99921C71.6203 1.99921 62.4193 5.15852 65.1649 14.8046C67.7887 24.0227 76.9764 22.4966 76.9764 22.4966L75.9929 18.0639C75.9929 18.0639 70.5211 17.737 69.6376 13.3772C68.5987 8.25318 73.0569 6.00155 73.0569 6.00155L71.6203 1.99921Z" fill="white"/>
<path fill-rule="evenodd" clip-rule="evenodd" d="M79.5469 6.95979C77.633 5.51476 75.3164 5.42185 75.3164 5.42185L74.709 1.22316C74.709 1.22316 78.6345 0.647038 82.3672 3.47949L79.5469 6.95979Z" fill="white"/>
<path fill-rule="evenodd" clip-rule="evenodd" d="M86.0758 15.9978C84.2788 20.3776 79.5987 21.8309 79.5987 21.8309L78.3862 17.4534C78.3862 17.4534 80.3906 16.2917 81.438 14.3141L86.0758 15.9978Z" fill="white"/>
<path fill-rule="evenodd" clip-rule="evenodd" d="M49.7686 12.7057C49.7686 12.7057 57.8848 7.59105 63.787 15.7804C69.4276 23.6063 62.613 29.7474 62.613 29.7474L59.7252 26.1943C59.7252 26.1943 63.0517 21.7909 59.8891 18.2083C55.9889 13.7909 52.0296 16.3271 52.0296 16.3271L49.7686 12.7057Z" fill="white"/>
<path fill-rule="evenodd" clip-rule="evenodd" d="M87.8426 0L86.0166 19.9071L89.9156 20.2305L91.9899 0.243387L87.8426 0Z" fill="white"/>
<path fill-rule="evenodd" clip-rule="evenodd" d="M92.1553 10.5199L95.0587 7.36407L103.851 21.6063L98.9578 21.5264L92.1553 10.5199Z" fill="white"/>
<path fill-rule="evenodd" clip-rule="evenodd" d="M97.1328 5.26055L100.533 1.37579L106.257 1.86257L99.3722 8.7397L97.1328 5.26055Z" fill="white"/>
<path fill-rule="evenodd" clip-rule="evenodd" d="M104.515 21.9293L114.138 4.28906L118.202 6.1503L108.248 23.8717L104.515 21.9293Z" fill="white"/>
<path fill-rule="evenodd" clip-rule="evenodd" d="M112.81 21.6059L119.696 25.0862L117.54 28.6465L110.82 25.1661L112.81 21.6059Z" fill="white"/>
<path fill-rule="evenodd" clip-rule="evenodd" d="M114.801 17.8847L116.544 14.4844L123.428 18.0458L121.52 21.2827L114.801 17.8847Z" fill="white"/>
<path fill-rule="evenodd" clip-rule="evenodd" d="M118.7 10.7631L120.608 7.28284L127.494 10.9254L125.42 14.3234L118.7 10.7631Z" fill="white"/>
<path fill-rule="evenodd" clip-rule="evenodd" d="M118.783 29.537L133.548 15.6992L136.368 18.5317L121.935 32.5305L118.783 29.537Z" fill="white"/>
<path fill-rule="evenodd" clip-rule="evenodd" d="M129.483 28.6467L132.221 25.9765L133.548 27.351C133.548 27.351 135.289 29.2122 136.784 27.9177C138.276 26.6232 137.53 25.7331 136.866 24.7619L135.373 23.3052L138.36 20.2305L139.024 20.8783C139.024 20.8783 144.58 26.381 139.521 30.9125C134.679 35.2476 129.815 29.3745 129.483 28.6467Z" fill="white"/>
<path fill-rule="evenodd" clip-rule="evenodd" d="M129.152 31.8024L132.469 33.987L129.317 40.2986L126.165 37.305L129.152 31.8024Z" fill="white"/>
<path fill-rule="evenodd" clip-rule="evenodd" d="M134.876 36.9821L136.701 40.5423C136.701 40.5423 134.128 42.647 136.038 44.6693C137.944 46.6928 140.184 44.8315 140.019 42.8892L144.499 43.1325C144.499 43.1325 144.083 48.3918 139.191 49.5253C134.295 50.6587 130.728 46.694 130.895 42.8092C131.06 38.9244 134.876 36.9821 134.876 36.9821Z" fill="white"/>
<path fill-rule="evenodd" clip-rule="evenodd" d="M139.935 40.1376C139.935 40.1376 139.438 36.1717 142.589 34.2305C145.741 32.2893 150.551 34.2305 151.465 36.9007C152.377 39.5709 152.294 43.4545 148.064 44.8314L146.322 41.5944C146.322 41.5944 148.728 40.5421 147.484 38.6009C146.24 36.6585 143.004 38.5198 143.918 40.2188L139.935 40.1376Z" fill="white"/>
<path fill-rule="evenodd" clip-rule="evenodd" d="M93.8935 30.8136C93.9164 30.6337 93.9272 30.4502 93.9272 30.2645C93.9272 27.82 91.8963 25.8389 89.3918 25.8389C86.8873 25.8389 84.8552 27.82 84.8552 30.2645C84.8552 32.7077 86.8873 34.6901 89.3918 34.6901C90.1559 34.6901 90.8767 34.5043 91.5094 34.1787L93.0003 35.9823C91.9505 36.6149 90.7152 36.9782 89.3918 36.9782C85.5904 36.9782 82.5098 33.9717 82.5098 30.2645C82.5098 26.5561 85.5916 23.5508 89.3918 23.5508C93.192 23.5508 96.2726 26.5561 96.2726 30.2645C96.2726 30.9464 96.169 31.6049 95.9749 32.2245L93.8935 30.8136Z" fill="white"/>
<path fill-rule="evenodd" clip-rule="evenodd" d="M91.3515 32.8737L94.1887 35.3475C94.5828 35.7202 95.2144 35.7109 95.5964 35.3252C95.9785 34.9396 95.9688 34.3246 95.5735 33.9519L92.7363 31.4781C92.341 31.1053 91.7106 31.1147 91.3286 31.5004C90.9465 31.8861 90.9574 32.4998 91.3515 32.8737Z" fill="white"/>
<path fill-rule="evenodd" clip-rule="evenodd" d="M92.9497 62.2826C100.059 56.7823 100.648 50.3778 100.669 50.0768L100.644 50.232C102.622 42.0627 97.4296 36.3284 97.2067 36.0874C96.8378 35.6888 96.2087 35.657 95.8001 36.0168C95.3927 36.3766 95.3602 36.9904 95.7278 37.389L95.7266 37.3878C95.7736 37.4395 100.437 42.633 98.706 49.7864L98.6867 49.8628L98.6807 49.9416C98.6614 50.1873 98.2528 55.1303 92.9473 59.8134V62.2826H92.9497Z" fill="white"/>
<path fill-rule="evenodd" clip-rule="evenodd" d="M101.729 44.8301H105.213C105.213 44.8301 106.541 45.0735 106.541 46.3681C106.541 48.1482 105.213 47.906 105.213 47.906H101.813C101.812 47.906 101.894 45.9636 101.729 44.8301Z" fill="white"/>
<path fill-rule="evenodd" clip-rule="evenodd" d="M98.2611 44.9923H92.0697L91.907 41.311H87.6271L87.3619 44.9923H73.2435C73.2435 44.9923 71.9165 45.1546 71.9165 46.5303C71.9165 48.3104 73.2435 47.9059 73.2435 47.9059H87.4005L86.6255 84.7231C89.9158 85.8577 92.8193 87.3134 92.8193 87.3134L92.1552 47.9047H98.3093C98.7251 46.1258 98.2611 44.9923 98.2611 44.9923Z" fill="white"/>
<path fill-rule="evenodd" clip-rule="evenodd" d="M68.8468 48.7981C69.9484 48.7981 70.8402 47.9269 70.8402 46.8522C70.8402 45.7775 69.9484 44.9075 68.8468 44.9075C67.7451 44.9075 66.8521 45.7787 66.8521 46.8522C66.8533 47.928 67.7464 48.7981 68.8468 48.7981Z" fill="white"/>
<path fill-rule="evenodd" clip-rule="evenodd" d="M109.411 48.4009C110.513 48.4009 111.405 47.5296 111.405 46.4549C111.405 45.3803 110.513 44.509 109.411 44.509C108.309 44.509 107.417 45.3803 107.417 46.4549C107.416 47.5284 108.309 48.4009 109.411 48.4009Z" fill="white"/>
<path fill-rule="evenodd" clip-rule="evenodd" d="M86.5975 53.0037C84.087 52.2688 76.3901 50.892 76.0792 50.8355C75.5392 50.7368 75.0198 51.0848 74.9185 51.6116C74.8173 52.1395 75.1741 52.6463 75.714 52.745C75.79 52.7591 84.2376 54.4029 86.6469 55.1083L86.5975 53.0037Z" fill="white"/>
<path fill-rule="evenodd" clip-rule="evenodd" d="M93.5342 82.328C104.507 76.6855 102.566 68.5056 101.266 65.2522C100.41 63.1123 98.5926 61.2028 96.6703 59.6673C96.6703 59.6673 97.5429 58.7396 97.9599 58.1376C100.135 59.9306 102.141 62.0941 103.121 64.5467C104.615 68.2857 106.423 78.4127 93.5342 84.3187V82.328Z" fill="white"/>
<path fill-rule="evenodd" clip-rule="evenodd" d="M95.4888 56.3023C94.1594 55.3511 93.0422 54.7632 92.9361 54.7032L92.9229 57.0994C93.2133 57.277 93.634 57.5415 94.1341 57.8778C94.1341 57.8766 95.0887 57.0113 95.4888 56.3023Z" fill="white"/>
<path fill-rule="evenodd" clip-rule="evenodd" d="M84.3586 87.0704C84.2079 87.188 80.4319 90.3908 77.7236 94.272L79.7907 94.7376C82.3229 91.1092 85.9013 87.9052 85.9351 87.8805L84.3586 87.0704Z" fill="white"/>
<path fill-rule="evenodd" clip-rule="evenodd" d="M68.6816 81.8915L57.4004 78.4922L56.7363 90.631C56.7363 90.631 58.5611 89.3353 60.5522 89.4164C62.5433 89.4976 63.7871 90.7921 64.6175 91.6022C65.4467 92.4111 67.0232 94.999 73.9909 98.3171C80.9585 101.635 91.4924 103.092 100.617 99.9361C100.617 99.9361 100.12 97.3459 98.6263 95.8091C98.6263 95.8091 96.2207 96.0525 92.9857 96.1325V91.1472C92.9857 91.1472 89.5387 88.9814 86.5991 88.1207V95.9702C86.5991 95.9702 81.0416 96.7803 72.9953 92.9779C64.949 89.1754 67.022 84.3182 67.4378 83.7527C67.4366 83.7539 68.4322 82.2148 68.6816 81.8915Z" fill="white"/>
<path fill-rule="evenodd" clip-rule="evenodd" d="M104.017 98.9655C104.528 98.7562 105.444 98.387 105.925 98.1565C112.893 94.8385 114.469 92.2506 115.299 91.4393C116.128 90.6304 117.373 89.3358 119.363 89.2559C121.353 89.1759 123.179 90.4681 123.179 90.4681L122.515 78.3317L111.235 81.7309C111.483 82.0542 112.478 83.591 112.478 83.591C112.893 84.1577 114.966 89.0125 106.921 92.8162C105.261 93.6016 103.199 94.3176 101.777 94.7586C101.778 94.7586 103.105 95.8109 104.017 98.9655Z" fill="white"/>
<path fill-rule="evenodd" clip-rule="evenodd" d="M57.0325 77.4002C56.8614 77.292 52.8647 74.677 53.0865 66.958C53.0865 66.958 53.1058 66.2667 53.0985 66.262L52.5212 65.8599C52.3235 65.7247 47.7219 62.4195 51.2111 55.4025L51.5823 54.2079H68.2667C68.2667 54.2079 73.2432 54.864 73.2432 60.3666C73.2432 65.8693 73.2432 91.6553 73.2432 91.6553C73.2432 91.6553 67.1856 89.4213 68.045 85.506C68.7091 82.4866 70.7002 81.4072 70.7002 81.4072L57.0325 77.4002Z" fill="white"/>
<path fill-rule="evenodd" clip-rule="evenodd" d="M123.064 76.6536C123.235 76.5454 127.232 73.9305 127.01 66.2115C127.01 66.2115 126.99 65.5202 126.998 65.5155L127.575 65.1133C127.773 64.9781 132.373 61.6718 128.885 54.6548L128.513 54.208H111.829C111.829 54.208 106.852 54.1174 106.852 59.6201C106.852 65.1227 106.865 91.4402 106.865 91.4402C106.865 91.4402 112.481 89.3132 111.62 85.3979C110.956 82.3785 109.298 81.5143 109.298 81.5143L123.064 76.6536Z" fill="white"/>
<path fill-rule="evenodd" clip-rule="evenodd" d="M77.8054 100.745C77.7608 101.461 77.6704 103.239 77.7945 104.089C77.7945 104.089 81.7864 105.927 89.5 105.927C97.2137 105.927 99.5109 105.055 102.219 104.195C102.119 99.9975 100.479 96.4031 97.2029 93.2062C94.0644 90.1444 81.7321 85.2696 81.5465 85.1944C79.5398 84.2455 77.063 82.1632 76.1301 79.1544C75.419 76.8605 75.7685 74.4466 77.1413 72.1726C79.5675 68.1585 83.7847 65.3613 86.4062 63.8387V66.0386C84.0366 67.5295 80.8029 69.9375 78.8576 73.1603C77.7596 74.9768 77.4824 76.8052 78.0368 78.5912C78.7841 81.0004 80.909 82.6265 82.3541 83.4178C84.1933 84.4254 95.1889 88.4924 98.6118 91.8317C102.182 95.3155 104.011 99.2403 104.201 103.819C104.201 103.819 105.76 103.334 106.506 102.686V99.5307C106.506 99.5307 107.502 98.964 108.166 98.4784C108.166 98.4784 112.617 96.0762 117.622 91.2767C117.622 91.2767 118.866 89.0909 124.259 92.2479C124.259 92.2479 124.425 84.2361 123.679 77.9222C123.679 77.9222 128.407 75.0909 128.158 66.4337C128.158 66.4337 134.048 62.3784 129.984 54.2055L176.104 54.2655C176.104 54.2655 182.158 53.9716 179.173 59.4742C176.186 64.9757 172.205 64.3302 169.551 64.3302C166.897 64.3302 138.694 64.3302 138.694 64.3302C138.694 64.3302 136.792 64.0915 136.703 65.1391C136.621 66.1103 138.113 65.814 138.363 65.814H148.275H160.594C160.594 65.814 166.649 66.2714 163.663 71.7729C160.911 76.8452 157.65 76.3772 154.124 76.3772C151.47 76.3772 150.765 76.3772 150.765 76.3772H133.702C133.702 76.3772 131.801 76.1197 131.712 77.1697C131.629 78.1385 133.122 77.8423 133.37 77.8423L134.257 77.8693H146.576C146.576 77.8693 152.63 78.329 149.645 83.8305C146.66 89.332 142.677 88.6853 140.023 88.6853C137.369 88.6853 136.664 88.6853 136.664 88.6853C136.664 88.6853 128.494 88.7652 127.83 88.7652C127.167 88.7652 126.503 88.8452 126.503 89.4931C126.503 90.1409 127.747 90.0598 127.747 90.0598H130.898H133.552C133.552 90.0598 139.608 90.4983 136.622 95.7552C133.637 101.012 129.655 100.391 127.001 100.391L127.331 102.846L136.622 104.786C136.622 104.786 134.796 107.213 130.484 110.695C126.17 114.174 121.773 116.762 119.865 117.976C117.957 119.191 116.077 119.919 113.506 114.417C109.691 116.844 102.197 120 88.6769 120C75.1563 120 66.2807 114.955 66.2807 114.955C63.7087 120.46 62.0502 119.676 60.1423 118.461C58.2344 117.249 53.8388 114.658 49.524 111.179C45.2103 107.7 43.3856 105.273 43.3856 105.273L52.1779 103.654L52.9252 100.659C50.2712 100.659 46.3963 101.941 43.3856 96.6982C40.317 91.3543 46.4554 91.0028 46.4554 91.0028H49.1094H52.2611C52.2611 91.0028 53.505 91.0827 53.505 90.436C53.505 89.7905 52.8408 89.7082 52.1779 89.7082C51.5151 89.7082 43.3434 89.6283 43.3434 89.6283C43.3434 89.6283 42.6383 89.6283 39.9831 89.6283C37.3292 89.6283 33.3482 90.2761 30.3615 84.7735C27.3749 79.2708 33.4313 78.8029 33.4313 78.8029H45.7491H46.6362C46.8857 78.8029 48.3609 78.7041 48.2946 78.1115C48.1777 77.0639 46.3035 77.319 46.3035 77.319H29.2406C29.2406 77.319 28.5356 77.319 25.8804 77.319C22.355 77.319 19.0935 77.787 16.3407 72.7147C13.3541 67.212 19.4093 66.7558 19.4093 66.7558H31.7271H41.6392C41.8886 66.7558 43.3808 67.0521 43.2976 66.0809C43.2084 65.0333 41.3077 65.272 41.3077 65.272C41.3077 65.272 13.1046 65.272 10.4494 65.272C7.79543 65.272 3.81446 65.9198 0.827819 60.416C-2.15882 54.9134 3.89642 54.2631 3.89642 54.2631L50.0157 54.2032C45.9516 62.376 51.7573 66.9157 51.7573 66.9157C51.509 75.5753 56.3204 78.4877 56.3204 78.4877C55.5732 84.8005 55.5732 92.73 55.5732 92.73C60.2183 89.1709 62.2925 91.1909 62.2925 91.1909C66.6893 95.4002 71.6658 98.3949 71.6658 98.3949C72.3299 98.8793 73.3243 99.4472 73.3243 99.4472L73.4689 103.085C73.4689 103.085 74.6513 103.494 75.73 103.735C75.6118 102.463 75.7131 100.275 75.73 100.013C75.7324 100.017 77.2233 100.642 77.8054 100.745Z" fill="white"/>
<path fill-rule="evenodd" clip-rule="evenodd" d="M60.0547 109.73C60.0547 109.73 70.8382 118.792 89.5016 118.792C108.165 118.792 119.28 109.566 119.28 109.566L112.976 100.666C112.976 100.666 104.682 107.14 90.332 107.14C75.9822 107.14 66.8572 100.909 66.8572 100.909L60.0547 109.73Z" fill="white"/>
<path fill-rule="evenodd" clip-rule="evenodd" d="M69.2236 112.91L72.3055 105.114L73.389 105.521L70.6736 112.388L74.722 113.911L74.3556 114.841L69.2236 112.91Z" fill="white"/>
<path fill-rule="evenodd" clip-rule="evenodd" d="M76.5782 112.696L77.6461 112.915C77.5725 113.383 77.6051 113.783 77.7425 114.114C78.004 114.731 78.6103 115.138 79.5624 115.331C79.9891 115.416 80.3904 115.437 80.7653 115.389C81.492 115.295 81.9187 114.952 82.0453 114.358C82.1405 113.912 82.0657 113.565 81.8199 113.317C81.5704 113.074 81.151 112.821 80.564 112.557L79.4817 112.078C78.7742 111.763 78.2873 111.478 78.0209 111.219C77.5605 110.769 77.4026 110.205 77.5472 109.525C77.7039 108.79 78.0932 108.239 78.7151 107.874C79.337 107.506 80.1253 107.422 81.0811 107.614C81.9597 107.791 82.6636 108.152 83.1903 108.689C83.717 109.229 83.8833 109.952 83.6904 110.862L82.6226 110.646C82.6587 110.195 82.6081 109.835 82.4719 109.564C82.2164 109.065 81.6728 108.733 80.8436 108.564C80.1735 108.429 79.6637 108.468 79.3117 108.684C78.9598 108.901 78.7453 109.19 78.6681 109.554C78.5825 109.954 78.6922 110.282 78.9947 110.537C79.1936 110.703 79.6709 110.954 80.4254 111.293L81.5463 111.794C82.0862 112.035 82.4876 112.295 82.7503 112.577C83.2023 113.069 83.3506 113.678 83.1951 114.406C83.0022 115.311 82.5261 115.892 81.768 116.145C81.0087 116.397 80.1819 116.434 79.2876 116.253C78.2439 116.041 77.4834 115.617 77.0037 114.976C76.5192 114.339 76.3781 113.578 76.5782 112.696Z" fill="white"/>
<path fill-rule="evenodd" clip-rule="evenodd" d="M87.1994 111.078C87.0776 110.862 87.021 110.637 87.0294 110.408C87.0355 110.236 87.0837 110.082 87.1753 109.94C87.3525 109.667 87.6574 109.535 88.0889 109.552C88.3721 109.561 88.5939 109.66 88.7554 109.843C88.9157 110.027 88.9916 110.243 88.982 110.489C88.9699 110.804 88.8445 111.086 88.6059 111.337C88.4601 111.491 88.1973 111.688 87.8189 111.929C87.5272 111.579 87.3223 111.297 87.1994 111.078ZM86.334 115.921C86.011 115.67 85.8579 115.324 85.8748 114.88C85.8905 114.469 86.0315 114.127 86.299 113.854C86.4738 113.67 86.8414 113.411 87.4031 113.073L89.2519 115.446C89.076 115.678 88.8277 115.884 88.5107 116.068C88.1925 116.249 87.8177 116.332 87.3862 116.318C87.0077 116.305 86.6582 116.171 86.334 115.921L85.4614 113.271C85.054 113.682 84.837 114.203 84.8129 114.837C84.79 115.425 84.9732 115.96 85.3589 116.442C85.7458 116.924 86.3834 117.181 87.2741 117.213C87.8767 117.234 88.4131 117.117 88.8855 116.859C89.1567 116.715 89.4568 116.478 89.7883 116.151L90.556 117.137L91.9083 117.185L90.4548 115.327C90.4512 115.421 90.5572 115.228 90.7742 114.744C90.9911 114.26 91.1418 113.752 91.2285 113.219L90.2318 113.185C90.1788 113.454 90.1294 113.66 90.0824 113.809C90.0353 113.956 89.9546 114.181 89.8389 114.479L88.3444 112.603C88.8301 112.314 89.1784 112.054 89.3894 111.827C89.7497 111.436 89.9414 110.974 89.9606 110.442C89.9775 109.982 89.8256 109.583 89.5038 109.241C89.182 108.899 88.724 108.718 88.1286 108.697C87.5031 108.673 86.9981 108.832 86.6112 109.174C86.2255 109.514 86.0218 109.955 86.0014 110.492C85.9917 110.752 86.0423 111.02 86.1544 111.301C86.2665 111.583 86.4955 111.933 86.8414 112.351C86.1701 112.715 85.7097 113.021 85.459 113.269L86.334 115.921Z" fill="white"/>
<path fill-rule="evenodd" clip-rule="evenodd" d="M96.412 108.094C97.4883 107.957 98.3597 108.124 99.0286 108.6C99.6976 109.077 100.112 109.663 100.272 110.356L99.1516 110.501C98.9515 109.985 98.6405 109.595 98.2187 109.33C97.7969 109.068 97.2424 108.981 96.5567 109.07C95.7202 109.178 95.0826 109.552 94.6463 110.191C94.21 110.832 94.0714 111.743 94.2329 112.928C94.3643 113.897 94.7042 114.655 95.2501 115.2C95.7961 115.742 96.5313 115.956 97.4521 115.836C98.2994 115.725 98.9021 115.323 99.2589 114.633C99.4481 114.267 99.565 113.804 99.606 113.243L100.728 113.098C100.747 113.985 100.514 114.759 100.031 115.423C99.4541 116.22 98.5923 116.693 97.4473 116.842C96.4602 116.968 95.5925 116.784 94.8428 116.288C93.8557 115.631 93.2518 114.498 93.0325 112.889C92.8673 111.665 93.0614 110.62 93.6194 109.752C94.2221 108.812 95.1537 108.258 96.412 108.094Z" fill="white"/>
<path fill-rule="evenodd" clip-rule="evenodd" d="M104.447 113.494C103.784 113.041 103.302 112.375 102.999 111.498C102.622 110.402 102.6 109.487 102.937 108.749C103.273 108.012 103.861 107.504 104.701 107.229C105.568 106.947 106.347 107.007 107.043 107.41C107.738 107.812 108.247 108.48 108.568 109.412C108.872 110.292 108.924 111.142 108.725 111.962C108.527 112.783 107.942 113.351 106.973 113.67C105.952 114.005 105.108 113.946 104.447 113.494ZM101.705 108.783C101.423 109.725 101.466 110.73 101.835 111.803C102.244 112.988 102.902 113.865 103.807 114.432C104.8 115.001 105.921 115.082 107.171 114.673C108.507 114.232 109.379 113.435 109.784 112.278C110.128 111.293 110.098 110.206 109.69 109.023C109.312 107.93 108.734 107.122 107.954 106.598C106.955 105.925 105.739 105.824 104.306 106.294C102.935 106.747 102.068 107.576 101.705 108.783Z" fill="white"/>
<path fill-rule="evenodd" clip-rule="evenodd" d="M55.4093 98.5626L62.0454 103.904L57.5667 110.053C57.5667 110.053 56.1565 112.157 57.9813 113.289C59.8073 114.424 62.6264 116.204 62.6264 116.204C62.6264 116.204 63.4556 116.768 62.7915 117.66C62.1286 118.551 60.8836 117.74 60.8836 117.74C60.8836 117.74 52.0912 112.724 46.1191 106.251L53.6677 104.389L55.4093 98.5626Z" fill="white"/>
<path fill-rule="evenodd" clip-rule="evenodd" d="M124.45 98.0227L117.814 103.364L122.294 109.514C122.294 109.514 123.704 111.617 121.879 112.749C120.053 113.884 117.234 115.664 117.234 115.664C117.234 115.664 116.405 116.231 117.068 117.12C117.732 118.011 118.976 117.2 118.976 117.2C118.976 117.2 127.768 112.184 133.742 105.711L126.192 103.849L124.45 98.0227Z" fill="white"/>
<path fill-rule="evenodd" clip-rule="evenodd" d="M91.8241 39.5708V38.1141H87.6768V39.5708H91.8241Z" fill="white"/>
<path fill-rule="evenodd" clip-rule="evenodd" d="M112.561 112.161C112.886 112.161 113.147 111.906 113.147 111.59C113.147 111.274 112.884 111.018 112.561 111.018C112.238 111.018 111.976 111.276 111.976 111.59C111.976 111.906 112.237 112.161 112.561 112.161Z" fill="white"/>
</svg>
