<svg width="180" height="120" viewBox="0 0 180 120" fill="none" xmlns="http://www.w3.org/2000/svg">
<path fill-rule="evenodd" clip-rule="evenodd" d="M116.413 43.8443C115.562 42.2733 115.415 39.4947 113.69 39.2479C112.015 38.6206 110.347 37.9514 108.657 37.4089L98.7268 39.6501L97.5635 47.0712L113.621 49.9749L117.809 53.8476L128.746 55.4598L133.866 52.8794C128.56 50.5047 123.126 48.6138 117.969 45.6564C117.335 45.2516 116.896 44.511 116.413 43.8443Z" fill="white"/>
<path d="M135.921 52.5578C135.562 51.9095 134.984 51.6509 134.584 51.4015C134.193 51.1454 134.249 50.6173 133.922 50.4636C133.588 50.315 133.002 51.2605 132.548 51.064C132.093 50.8574 132.127 49.6802 131.748 49.5063C131.359 49.3367 130.684 50.2192 130.331 50.0622C129.975 49.9195 129.906 48.6826 129.562 48.5256C129.223 48.382 128.502 49.2612 128.151 49.11C127.797 48.9454 127.775 47.7413 127.383 47.5625C126.992 47.3962 126.306 48.2964 125.966 48.1335C125.613 47.9832 125.579 46.7816 125.205 46.6069C124.826 46.4398 124.133 47.3223 123.784 47.1636C123.424 47.0024 123.326 45.7681 122.998 45.6186C122.663 45.4767 122.011 46.2055 121.479 46.1635C117.791 45.6866 116.381 42.4706 116.13 43.422C115.884 44.354 116.899 46.622 118.174 47.3878C119.192 48.0008 130.175 52.2177 130.463 52.4058C130.744 52.5981 131.437 53.0263 131.19 53.5814C130.808 54.2917 129.735 53.5898 129.462 53.2757C129.186 52.9575 129.249 52.8416 128.99 52.745C128.401 52.5519 128.075 54.039 127.452 53.84C126.885 53.6637 126.925 52.085 126.35 51.9003C125.715 51.687 125.427 53.1833 124.823 52.9885C124.321 52.8315 124.253 51.2235 123.715 51.0438C123.097 50.8364 122.817 52.3369 122.173 52.1287C121.619 51.949 121.65 50.3805 121.071 50.1873C120.493 49.9976 120.089 51.4519 119.543 51.2798C118.995 51.1034 118.915 49.5013 118.429 49.3418C117.93 49.1881 117.538 50.0026 116.869 50.1235C116.869 50.1235 114.948 50.844 111.91 46.444C108.866 42.0533 107.618 41.2001 105.886 42.9887C103.058 45.91 101.301 43.9787 100.789 43.1104C100.174 42.1146 100.818 41.2001 100.818 41.2001C100.818 41.2001 101.716 43.123 102.847 43.1566C104.669 43.2322 106.043 39.7853 109.165 39.724C113.121 39.5266 114.152 41.4747 115.233 41.6301C116.235 41.7661 116.569 41.5419 117.262 40.9835H117.259C117.819 40.7072 118.307 42.2094 118.894 41.9072C119.516 41.5822 119.061 40.0682 119.73 39.7189C120.355 39.4082 120.764 40.9306 121.362 40.6216C121.991 40.3025 121.59 38.7466 122.195 38.4434C122.817 38.1319 123.18 39.6694 123.825 39.3411C124.474 39.0211 124.056 37.4803 124.645 37.1705C125.255 36.8623 125.695 38.3754 126.293 38.0799C126.86 37.7994 126.536 36.188 127.126 35.895C127.739 35.5902 128.134 37.1083 128.787 36.7758C129.324 36.5164 129.027 34.9033 129.583 34.6111C130.139 34.3231 130.655 35.8186 131.234 35.518C131.777 35.2409 131.459 33.6379 132.037 33.3381C132.648 33.0325 133.12 34.5271 133.698 34.245C134.27 33.9603 133.836 32.6672 134.582 32.1542C134.582 32.1542 135.615 31.6831 135.55 30.6318C135.541 30.4555 135.328 28.2085 133.627 27.7324C131.991 27.2764 119.072 32.2306 118.905 31.9451C117.716 28.6871 116.193 29.5931 115.961 29.6653C115.725 29.7493 114.282 30.5999 112.685 29.7493C109.548 27.7802 107.043 32.7873 105.325 32.1281C103.742 31.5118 102.533 31.867 101.869 32.1802C101.262 32.4716 100.277 33.5682 98.1905 32.5732C82.0608 24.937 69.4543 31.6126 69.4543 31.6126C62.3466 34.905 61.437 31.6126 61.437 31.6126C61.437 31.6126 59.0976 27.2067 75.5677 21.9519C99.24 14.4115 99.9546 1.93375 99.6742 1.14444C99.2854 -5.31077e-05 99.137 1.34849 98.3576 2.58871C97.7036 3.61985 96.943 3.11016 96.943 3.11016C96.1981 2.61474 95.7215 3.79366 95.7215 3.79366C95.7215 3.79366 94.7635 5.85594 93.9163 4.68373C93.1018 3.55435 92.0208 6.10281 91.6169 6.20357C91.133 6.32113 90.8968 5.99365 90.2483 5.58052C89.2757 4.98434 88.2317 7.44127 87.6975 7.61509C86.8794 7.87539 86.3047 6.2783 85.6016 6.95174C83.4978 8.96699 83.1672 9.24661 82.6003 8.46318C82.1825 7.86952 82.1201 7.22715 80.7152 9.09294C79.5191 10.6825 78.9469 10.9806 78.4666 9.96958C77.9725 8.95187 78.0996 7.56219 76.0443 10.2971C75.0632 11.6028 74.5618 11.628 73.9998 11.041C73.5765 10.6002 73.5796 8.49676 72.1056 10.4012C70.7697 12.1141 69.7995 12.8657 69.4216 11.3441C69.0038 9.63454 67.4293 11.659 67.0653 12.136C66.6874 12.6121 65.8784 13.8725 65.3109 12.5718C64.7441 11.2627 63.3864 13.2167 62.5791 14.456C61.956 15.4192 61.4527 14.676 60.7951 14.0647C60.0484 13.3544 57.812 17.683 57.6097 17.9416C57.405 18.1885 57.2494 17.9416 56.7371 17.3395C55.9498 16.4142 53.826 21.5565 53.4821 21.8915C53.4821 21.8915 53.3367 22.3357 52.7578 21.569C51.9342 20.4825 47.56 28.4654 45.9092 37.498C43.7975 49.0773 47.1622 57.9578 47.1622 57.9578C47.1622 57.9578 48.1729 57.9998 48.6035 57.0535L49.2581 55.0063C49.7892 53.3001 50.6594 53.8366 50.6594 53.8366L48.5968 62.3502C48.271 63.4712 48.4678 65.0574 49.1885 66.5571C49.8673 68.0635 50.3354 69.082 50.8799 69.7823C52.5543 71.9689 52.3829 69.3826 52.4265 69.0602C52.6227 67.6755 53.7285 68.7386 54.5963 69.4019C56.1714 70.6279 55.9964 67.9207 56.3416 67.0382C56.5814 66.4059 57.356 66.3774 58.1965 67.3539C58.8506 68.1122 59.5016 65.5436 59.5016 65.5436C60.3179 60.0688 58.3994 59.4357 57.362 59.3551L55.2619 59.2224C55.2619 59.2224 55.3999 58.3894 55.6186 57.6093L55.7124 57.0568C58.0027 49.1428 54.1748 47.6154 53.0297 47.7413C51.7664 47.8975 51.8548 46.7816 51.8548 46.7816C51.8548 46.7816 58.773 44.8923 57.4831 55.0659C57.4831 55.0659 57.2288 56.8377 57.0756 57.7613L58.9771 58.0695C60.6128 58.3525 60.9035 61.0361 60.9035 61.0361C60.9035 61.0361 66.9212 63.242 70.3342 62.3603C70.3342 62.3603 71.8597 61.8565 72.283 60.5399C72.283 60.5399 74.4934 53.3185 80.9465 53.0137C80.9465 53.0137 81.1736 53.9483 80.1423 54.4353C78.9069 55.013 74.7877 55.4665 73.932 62.0261V62.0521C73.8388 63.1286 74.0471 65.421 75.7306 66.4832C77.1658 67.3808 77.6709 71.0032 77.9688 71.9815C78.8045 74.7583 80.0551 72.1041 80.0551 72.1041C80.0551 72.1041 80.8484 69.8621 81.5279 71.1057C82.6773 73.2024 83.2114 72.146 83.4724 70.8109C83.7582 69.37 84.1743 68.7411 85.3775 70.4935C85.8911 71.2543 86.9 70.6665 87.0005 69.365C87.2137 66.4991 88.6096 68.7772 88.8094 68.8881C89.0486 69.014 90.5105 68.5581 89.6923 65.3261C89.6923 65.3261 88.5871 62.2461 83.6044 60.9177C82.4356 60.6104 82.6215 59.4365 82.6215 59.4365L83.7189 59.6506C84.0459 59.7245 86.9436 60.1704 87.2524 60.2384C99.4065 61.901 108.629 56.1844 108.906 55.7771C118.347 58.2853 131.186 57.4305 133.596 56.2264C136.018 55.0424 136.199 53.0809 135.92 52.5578H135.921ZM116.426 31.6671C116.624 31.2263 116.81 30.9769 116.982 30.8568C117.715 30.2791 118.182 32.087 118.093 32.1533C118.089 32.1567 118.072 32.1642 118.065 32.1684C118.063 32.171 118.063 32.1777 118.062 32.1802C117.947 32.2574 116.534 32.8133 116.394 32.6857C116.115 32.417 116.426 31.6671 116.426 31.6671ZM111.059 32.239C111.059 32.239 111.24 31.9199 111.594 31.7578C111.943 31.5815 112.469 31.5521 113.167 32.1752C113.969 32.8822 113.948 33.4347 113.948 33.4347C113.915 33.4557 113.881 33.4742 113.846 33.4901C113.265 33.8025 110.879 34.208 110.879 34.208C110.743 33.9005 110.686 33.5377 110.719 33.1797C110.752 32.8216 110.871 32.4898 111.059 32.239ZM66.5602 16.2311C66.9611 16.6594 66.5772 19.1272 66.2914 18.7636L64.2312 17.2522C64.2312 17.2522 66.1497 15.8155 66.5602 16.2311ZM63.2095 17.8072C63.6147 18.2254 63.235 20.6983 62.9479 20.3305L60.8932 18.8165C60.8938 18.8165 62.8026 17.3782 63.2095 17.8072ZM62.0505 22.6313C62.4574 23.0528 62.0759 25.5299 61.7852 25.1722L59.7274 23.6397C59.7274 23.6397 61.6411 22.2122 62.0505 22.6313ZM60.0896 29.1086L58.0294 27.5913C58.0294 27.5913 59.9454 26.1521 60.3518 26.5753C60.7636 26.9968 60.37 29.4722 60.0896 29.1086ZM59.702 33.9948L57.6473 32.4766C57.6473 32.4766 59.5591 31.0441 59.9666 31.4581C60.3742 31.8762 59.9945 34.3416 59.7014 33.9939L59.702 33.9948ZM59.6639 19.5269C60.0726 19.9476 59.6869 22.4096 59.3998 22.0594L57.3384 20.5371C57.3384 20.5371 59.2581 19.0995 59.6639 19.5269ZM57.8768 23.2879C58.2801 23.7077 57.898 26.1705 57.6139 25.8204L55.5562 24.3031C55.5562 24.3031 57.4698 22.8605 57.8768 23.2871V23.2879ZM54.2045 29.1884C54.2045 29.1884 56.1242 27.7441 56.5257 28.1715C56.9351 28.5897 56.5499 31.0575 56.2623 30.6998L54.2045 29.1884ZM55.7815 35.3685L53.7285 33.8453C53.7285 33.8453 55.6434 32.4162 56.0479 32.8377C56.4567 33.2575 56.0733 35.7228 55.7815 35.3685ZM54.3171 25.0009C54.7229 25.4123 54.3396 27.8835 54.0519 27.5266L52.0014 26.0043C52.0014 26.0043 53.906 24.5751 54.3171 25.0009ZM52.4665 29.9769C52.874 30.395 52.4919 32.8771 52.1976 32.5119L50.1447 30.9971C50.1453 30.9971 52.0595 29.5704 52.4665 29.9769ZM49.7613 35.8715C49.7613 35.8715 51.6762 34.444 52.0819 34.8638C52.4925 35.2803 52.1019 37.7557 51.8197 37.3963L49.7613 35.8715ZM53.4324 41.447L51.3764 39.928C51.3764 39.928 53.2925 38.4896 53.6995 38.912C54.1064 39.3352 53.7176 41.8005 53.4324 41.4478V41.447ZM56.3804 44.7596L54.3244 43.2465C54.3244 43.2465 56.2411 41.8081 56.648 42.2254C57.0514 42.6402 56.662 45.1249 56.3804 44.7596ZM57.3021 39.5896L55.2449 38.0656C55.2449 38.0656 57.161 36.6381 57.5679 37.047C57.9749 37.4694 57.5891 39.9364 57.3021 39.5896ZM60.0375 46.9906L57.9846 45.4733C57.9846 45.4733 59.8897 44.0383 60.3009 44.459C60.7067 44.883 60.3294 47.3391 60.0375 46.9906ZM61.0246 42.2279L58.9705 40.7114C58.9705 40.7114 60.8823 39.284 61.288 39.7055C61.6938 40.1203 61.3159 42.5923 61.0246 42.2279ZM61.7053 37.7272L59.6505 36.2073C59.6505 36.2073 61.563 34.7799 61.9735 35.1997C62.3811 35.6238 61.9917 38.0815 61.7053 37.7272ZM64.5957 46.4155L62.5404 44.8889C62.5404 44.8889 64.4534 43.4639 64.8634 43.8779C65.2752 44.2978 64.8852 46.7757 64.5957 46.4155ZM65.4859 41.6737L63.4318 40.1598C63.4318 40.1598 65.3473 38.7163 65.7542 39.1437C66.1551 39.551 65.7694 42.0281 65.4853 41.6737H65.4859ZM66.2308 36.6507L64.1761 35.1325C64.1761 35.1325 66.0897 33.7093 66.4997 34.1224C66.9036 34.5439 66.5178 37.0084 66.2308 36.6499V36.6507ZM69.1176 45.5262L67.0562 44.0081C67.0562 44.0081 68.9723 42.5714 69.3835 42.9895C69.7868 43.422 69.3974 45.8915 69.1176 45.5254V45.5262ZM69.808 40.4545L67.7538 38.9288C67.7538 38.9288 69.6699 37.498 70.075 37.9136C70.4832 38.3393 70.0969 40.7971 69.8086 40.4537L69.808 40.4545ZM70.525 35.2467L68.4696 33.7269C68.4696 33.7269 70.3827 32.2969 70.7915 32.7134C71.1972 33.1442 70.8133 35.6045 70.525 35.2467ZM73.6183 43.521L71.5612 42.0172C71.5612 42.0172 73.4766 40.5813 73.8787 40.9986C74.2917 41.4168 73.906 43.8813 73.6183 43.521ZM74.1815 38.5249L72.1207 37.0151C72.1207 37.0151 74.035 35.5818 74.4395 35.9949C74.8573 36.419 74.4655 38.8969 74.1809 38.5249H74.1815ZM74.8949 33.6295L72.8329 32.1197C72.8329 32.1197 74.7526 30.6772 75.1559 31.0928C75.5622 31.5185 75.1777 33.9948 74.8949 33.6287V33.6295ZM78.0439 42.4656L75.9874 40.9457C75.9874 40.9457 77.8974 39.509 78.3086 39.9297C78.7204 40.3537 78.3322 42.8157 78.0433 42.4656H78.0439ZM78.6047 37.8011L76.5469 36.288C76.5469 36.288 78.4648 34.8412 78.8681 35.2719C79.2745 35.68 78.8905 38.1613 78.6047 37.8011ZM79.2817 32.8242L77.2215 31.3094C77.2215 31.3094 79.1376 29.8593 79.5482 30.2917C79.9552 30.7141 79.5742 33.1761 79.2817 32.8242ZM82.131 42.552L80.0793 41.0347C80.0793 41.0347 81.9917 39.5938 82.3987 40.0237C82.8062 40.4385 82.4199 42.9064 82.131 42.552ZM82.8099 37.5441L80.7485 36.0302C80.7485 36.0302 82.6682 34.5859 83.0757 35.0141C83.479 35.4374 83.0939 37.9002 82.8099 37.5441ZM83.5802 32.5589L81.5218 31.0441C81.5218 31.0441 83.4385 29.5998 83.846 30.0298C84.2566 30.4471 83.8672 32.9191 83.5796 32.5589H83.5802ZM86.4161 42.552L84.3583 41.0272C84.3583 41.0272 86.272 39.5947 86.6783 40.0246C87.0847 40.4385 86.7068 42.9064 86.4161 42.552ZM87.0744 37.8221L85.0215 36.2989C85.0215 36.2989 86.9327 34.8781 87.339 35.2829C87.7472 35.7086 87.3633 38.1823 87.0744 37.8221ZM87.8526 32.9804L85.8015 31.4648C85.8015 31.4648 87.7145 30.034 88.1233 30.4471C88.5242 30.8669 88.1396 33.3381 87.8526 32.9804ZM90.4445 43.2666L88.3867 41.7333C88.3867 41.7333 90.3028 40.3118 90.7097 40.7358C91.1209 41.1472 90.7364 43.6201 90.4439 43.2666H90.4445ZM91.1712 38.6794L89.1152 37.1671C89.1152 37.1671 91.0337 35.7329 91.437 36.1528C91.8482 36.5802 91.451 39.043 91.1712 38.6802V38.6794ZM91.9566 33.9939L89.8952 32.4833C89.8952 32.4833 91.8131 31.0475 92.2225 31.4572C92.6276 31.8754 92.2364 34.3407 91.9566 33.9931V33.9939ZM95.1626 39.6694L93.1084 38.1672C93.1084 38.1672 95.0209 36.728 95.4315 37.1402C95.8354 37.5651 95.4502 40.0321 95.1626 39.6694Z" fill="white"/>
<path d="M41.1236 82.8807C40.6936 81.2996 39.8779 80.6186 38.384 80.5875C38.2477 80.5816 31.335 80.5959 31.335 80.5959L21.1018 119.228H26.0827C26.4887 119.276 26.8968 119.182 27.2697 118.955C28.2386 118.342 28.714 116.784 28.8521 116.252C28.8521 116.266 30.2443 110.87 30.34 110.517L40.6343 110.512C40.8493 111.423 42.7254 119.212 42.7254 119.212H49.4667L45.1907 100.411L41.1236 82.8807ZM39.0477 102.582L32.1107 102.584C32.8592 99.7442 34.722 92.5581 35.5171 89.6494C36.2045 92.5833 39.0295 102.487 39.0477 102.582ZM89.6297 80.2869H89.6261C81.6523 80.302 75.8684 88.6015 75.8684 100.011C75.8684 111.192 81.7801 119.626 89.6297 119.626C97.475 119.626 103.627 111.016 103.627 100.011C103.627 88.9491 97.475 80.2869 89.6297 80.2869ZM89.8295 111.008C85.7648 111.008 82.5795 106.134 82.5795 99.9071C82.5795 93.7379 85.6964 89.0902 89.8247 89.0902C93.9233 89.0902 96.8955 93.6363 96.8955 99.9071C96.8949 106.24 93.8555 111.008 89.8295 111.008ZM121.666 96.5458L121.404 96.44C121.411 96.445 118.811 95.3484 118.804 95.3383L118.416 95.1469C116.292 94.083 114.784 93.1904 114.784 91.4766V91.3506C114.995 88.5049 118.806 88.4747 118.842 88.4747C120.943 88.4747 122.558 88.9197 124.603 90.06L124.647 90.0827L124.735 90.118C125.207 90.2507 125.621 90.2691 125.956 90.1658L126.522 89.8686C127.335 89.2489 128.144 85.964 128.454 84.5811L128.554 84.1377L128.304 83.8186C128.206 83.6885 127.61 83.0083 125.443 81.8874C123.238 80.742 120.117 80.5632 120.117 80.5632L118.576 80.5539C110.532 80.5539 107.461 87.4369 107.364 92.0593C107.297 96.665 109.188 99.0355 112.046 101.188C113.241 102.107 115.425 102.952 117.009 103.566C117.001 103.556 118.648 104.232 118.648 104.232C121.645 105.537 122.79 106.986 122.576 109.235C122.481 109.978 121.468 111.208 119.168 111.208C117.418 111.208 115.836 110.836 114.189 110.039C113.398 109.603 112.58 109.04 111.716 108.329L111.674 108.293L111.586 108.24C111.107 107.992 110.679 107.889 110.312 107.932L109.679 108.121C108.755 108.6 107.471 111.852 106.957 113.226L106.755 113.769L107.104 114.153C107.166 114.211 108.595 115.786 109.81 116.772C111.239 117.871 112.844 118.666 114.739 119.197C115.503 119.39 116.717 119.634 118.618 119.634C124.851 119.634 129.379 115.257 129.9 108.737C130.126 102.822 127.509 98.9633 121.666 96.5458ZM134.991 80.6438C134.732 80.6379 133.372 80.6748 132.59 81.6774C132.231 82.1359 132.042 82.7489 132.042 83.4391L132.038 89.5512C132.038 89.5512 139.558 89.5428 140.543 89.5428V119.243L147.51 119.234V89.5428C148.439 89.5411 152.983 89.5411 152.983 89.5411C153.241 89.5411 154.598 89.5008 155.382 88.5024C155.558 88.2777 155.698 88.0043 155.792 87.7C155.887 87.3957 155.935 87.0672 155.932 86.7357V80.6438H134.991ZM15.4923 110.5H7.67175C7.67175 109.076 7.64995 84.1671 7.64995 84.1671C7.64995 83.0738 7.41377 82.2064 6.9396 81.6002C6.18202 80.6135 5.05381 80.6186 4.63293 80.6312L0.523438 80.6186L0.533732 119.227H17.9685L17.9806 113.092C17.9806 112.307 17.739 110.5 15.4923 110.5ZM65.3409 88.8509C67.0305 88.6947 68.4524 88.8509 69.7938 89.3597C70.5138 89.6931 71.1642 89.7594 71.7153 89.5436L72.2712 89.201C73.0512 88.5352 73.6096 85.1411 73.873 83.1855L73.9336 82.727L73.6489 82.4432C73.5781 82.3719 73.3564 82.1569 70.8317 81.2122C69.0849 80.5694 67.2845 80.2484 65.4772 80.2575L65.3658 80.2592C59.5958 80.2592 50.9068 85.54 50.6579 100.081V100.163C50.9068 114.709 59.5964 119.988 65.37 119.988L65.4772 119.994C66.4861 120 68.5293 119.885 70.8317 119.028C73.357 118.091 73.5781 117.874 73.652 117.801L73.9342 117.524L73.8736 117.063C73.6102 115.096 73.0518 111.71 72.2718 111.039V111.034L71.7177 110.695C71.1648 110.486 70.5138 110.554 69.7835 110.894C68.4494 111.391 67.0281 111.553 65.3203 111.397C60.9504 110.804 58.3258 106.68 58.1278 100.089C58.3252 93.5615 60.951 89.4387 65.3409 88.8509ZM176.572 119.21C177.648 119.177 179.476 118.298 179.476 115.331L179.455 110.486L167.178 110.495C167.178 110.495 167.199 104.941 167.199 104.021H177.333L177.316 95.0889C177.316 95.0889 168.22 95.104 167.217 95.104C167.214 94.0477 167.217 90.6142 167.217 89.552C168.22 89.552 176.52 89.5361 176.52 89.5361C176.775 89.542 178.164 89.5436 178.916 88.5033C179.442 87.7727 179.466 86.4435 179.466 85.7508V80.6513H160.154L160.157 119.241L176.572 119.21Z" fill="white"/>
</svg>
