<svg width="100" height="92" viewBox="0 0 100 92" fill="none" xmlns="http://www.w3.org/2000/svg">
<path d="M99.9953 74.7611C99.9943 74.7477 99.9945 74.7344 99.9932 74.7209C99.9879 74.6675 99.9795 74.6152 99.9676 74.564C99.9664 74.559 99.9647 74.554 99.9633 74.5489C99.9518 74.5019 99.9375 74.4559 99.9207 74.4109C99.9162 74.3989 99.9113 74.3872 99.9064 74.3754C99.89 74.3346 99.8715 74.2949 99.851 74.2562C99.8475 74.2494 99.8451 74.2424 99.8414 74.2356L92.007 60.019V13.2464C92.007 11.8078 90.735 10.6375 89.1713 10.6375H10.8283C9.26465 10.6375 7.99258 11.8078 7.99258 13.2464V60.0187L0.158398 74.2354C0.154687 74.2422 0.152344 74.2492 0.148828 74.2561C0.12832 74.2947 0.109961 74.3344 0.0933594 74.375C0.0884766 74.3869 0.0835937 74.3987 0.0791016 74.4108C0.0625 74.4559 0.0480469 74.502 0.0365234 74.5491C0.0353516 74.554 0.0335937 74.5588 0.0324219 74.5637C0.0205078 74.6151 0.0121094 74.6674 0.00683594 74.7207C0.00546875 74.734 0.00546875 74.7475 0.0046875 74.7608C0.00273438 74.7888 0 74.8165 0 74.8449V78.2636C0 79.9723 1.51074 81.3622 3.36797 81.3622H96.632C98.4893 81.3622 100 79.9723 100 78.2636V74.8449C100 74.8165 99.9973 74.7888 99.9953 74.7611ZM10.9225 13.3332H89.0775V58.9934H10.9225V13.3332ZM10.3572 61.6885H89.6426L96.15 73.4971H63.9664L62.351 68.1084C62.0221 67.0114 60.9287 66.2452 59.6918 66.2452H40.3078C39.0709 66.2452 37.9773 67.0114 37.6486 68.1082L36.0332 73.4971H3.8498L10.3572 61.6885ZM60.9273 73.4972H39.0727L40.4385 68.9407H59.5615L60.9273 73.4972ZM97.0703 78.2634C97.0703 78.4857 96.8736 78.6667 96.632 78.6667H3.36797C3.12637 78.6667 2.92969 78.4857 2.92969 78.2634V76.1924H97.0703V78.2634Z" fill="#BE6A15"/>
<path d="M84.4881 38.4094C83.6789 38.4094 83.0232 39.0126 83.0232 39.7571V53.4232H16.9775V39.7571C16.9775 39.0126 16.3219 38.4094 15.5127 38.4094C14.7035 38.4094 14.0479 39.0126 14.0479 39.7571V54.0052C14.0479 55.1705 15.0781 56.1185 16.3449 56.1185H83.6561C84.9227 56.1185 85.9531 55.1707 85.9531 54.0052V39.7571C85.9529 39.013 85.2973 38.4094 84.4881 38.4094Z" fill="#BE6A15"/>
<path d="M83.6559 16.2083H16.3449C15.0783 16.2083 14.0479 17.1561 14.0479 18.3216V32.5697C14.0479 33.3141 14.7035 33.9174 15.5127 33.9174C16.3219 33.9174 16.9775 33.3141 16.9775 32.5697V18.9036H83.0232V32.5697C83.0232 33.3141 83.6789 33.9174 84.4881 33.9174C85.2973 33.9174 85.9529 33.3141 85.9529 32.5697V18.3216C85.9529 17.1559 84.9227 16.2083 83.6559 16.2083Z" fill="#BE6A15"/>
</svg>
