<svg width="326" height="49" viewBox="0 0 326 49" fill="none" xmlns="http://www.w3.org/2000/svg">
<path d="M12.3 5.112C15.556 5.112 18.4013 5.75733 20.836 7.048C23.2707 8.33867 25.148 10.1573 26.468 12.504C27.8173 14.8213 28.492 17.5053 28.492 20.556C28.492 23.5773 27.8173 26.2613 26.468 28.608C25.148 30.9547 23.256 32.7733 20.792 34.064C18.3573 35.3547 15.5267 36 12.3 36H0.728V5.112H12.3ZM11.816 29.488C14.6613 29.488 16.876 28.7107 18.46 27.156C20.044 25.6013 20.836 23.4013 20.836 20.556C20.836 17.7107 20.044 15.496 18.46 13.912C16.876 12.328 14.6613 11.536 11.816 11.536H8.252V29.488H11.816ZM55.8407 23.328C55.8407 24.032 55.7968 24.7653 55.7088 25.528H38.6808C38.7981 27.0533 39.2821 28.2267 40.1328 29.048C41.0128 29.84 42.0834 30.236 43.3448 30.236C45.2221 30.236 46.5274 29.444 47.2608 27.86H55.2688C54.8581 29.4733 54.1101 30.9253 53.0248 32.216C51.9688 33.5067 50.6341 34.5187 49.0208 35.252C47.4074 35.9853 45.6034 36.352 43.6088 36.352C41.2034 36.352 39.0621 35.8387 37.1848 34.812C35.3074 33.7853 33.8408 32.3187 32.7848 30.412C31.7288 28.5053 31.2008 26.276 31.2008 23.724C31.2008 21.172 31.7141 18.9427 32.7408 17.036C33.7968 15.1293 35.2634 13.6627 37.1408 12.636C39.0181 11.6093 41.1741 11.096 43.6088 11.096C45.9848 11.096 48.0968 11.5947 49.9448 12.592C51.7928 13.5893 53.2301 15.012 54.2568 16.86C55.3128 18.708 55.8407 20.864 55.8407 23.328ZM48.1408 21.348C48.1408 20.0573 47.7008 19.0307 46.8208 18.268C45.9408 17.5053 44.8408 17.124 43.5208 17.124C42.2594 17.124 41.1888 17.4907 40.3088 18.224C39.4581 18.9573 38.9301 19.9987 38.7248 21.348H48.1408ZM69.798 36.352C67.6567 36.352 65.75 35.9853 64.078 35.252C62.406 34.5187 61.086 33.5213 60.118 32.26C59.15 30.9693 58.6074 29.532 58.49 27.948H65.926C66.014 28.7987 66.41 29.488 67.114 30.016C67.818 30.544 68.6834 30.808 69.71 30.808C70.6487 30.808 71.3674 30.632 71.866 30.28C72.394 29.8987 72.658 29.4147 72.658 28.828C72.658 28.124 72.2914 27.6107 71.558 27.288C70.8247 26.936 69.6367 26.5547 67.994 26.144C66.234 25.7333 64.7674 25.308 63.594 24.868C62.4207 24.3987 61.4087 23.68 60.558 22.712C59.7074 21.7147 59.282 20.38 59.282 18.708C59.282 17.3 59.6634 16.024 60.426 14.88C61.218 13.7067 62.362 12.7827 63.858 12.108C65.3834 11.4333 67.1874 11.096 69.27 11.096C72.35 11.096 74.77 11.8587 76.53 13.384C78.3194 14.9093 79.346 16.9333 79.61 19.456H72.658C72.5407 18.6053 72.1594 17.9307 71.514 17.432C70.898 16.9333 70.0767 16.684 69.05 16.684C68.17 16.684 67.4954 16.86 67.026 17.212C66.5567 17.5347 66.322 17.9893 66.322 18.576C66.322 19.28 66.6887 19.808 67.422 20.16C68.1847 20.512 69.358 20.864 70.942 21.216C72.7607 21.6853 74.242 22.1547 75.386 22.624C76.53 23.064 77.5274 23.7973 78.378 24.824C79.258 25.8213 79.7127 27.1707 79.742 28.872C79.742 30.3093 79.3314 31.6 78.51 32.744C77.718 33.8587 76.5594 34.7387 75.034 35.384C73.538 36.0293 71.7927 36.352 69.798 36.352ZM88.1292 8.896C86.8092 8.896 85.7239 8.51466 84.8732 7.752C84.0519 6.96 83.6412 5.992 83.6412 4.848C83.6412 3.67467 84.0519 2.70667 84.8732 1.944C85.7239 1.152 86.8092 0.755997 88.1292 0.755997C89.4199 0.755997 90.4759 1.152 91.2972 1.944C92.1479 2.70667 92.5732 3.67467 92.5732 4.848C92.5732 5.992 92.1479 6.96 91.2972 7.752C90.4759 8.51466 89.4199 8.896 88.1292 8.896ZM91.8692 11.448V36H84.3452V11.448H91.8692ZM106.65 11.096C108.38 11.096 109.891 11.448 111.182 12.152C112.502 12.856 113.514 13.78 114.218 14.924V11.448H121.742V35.956C121.742 38.2147 121.287 40.2533 120.378 42.072C119.498 43.92 118.134 45.3867 116.286 46.472C114.467 47.5573 112.194 48.1 109.466 48.1C105.828 48.1 102.88 47.2347 100.622 45.504C98.3631 43.8027 97.0724 41.4853 96.7498 38.552H104.186C104.42 39.4907 104.978 40.224 105.858 40.752C106.738 41.3093 107.823 41.588 109.114 41.588C110.668 41.588 111.9 41.1333 112.81 40.224C113.748 39.344 114.218 37.9213 114.218 35.956V32.48C113.484 33.624 112.472 34.5627 111.182 35.296C109.891 36 108.38 36.352 106.65 36.352C104.626 36.352 102.792 35.8387 101.15 34.812C99.5071 33.756 98.2018 32.2747 97.2338 30.368C96.2951 28.432 95.8258 26.2027 95.8258 23.68C95.8258 21.1573 96.2951 18.9427 97.2338 17.036C98.2018 15.1293 99.5071 13.6627 101.15 12.636C102.792 11.6093 104.626 11.096 106.65 11.096ZM114.218 23.724C114.218 21.8467 113.69 20.3653 112.634 19.28C111.607 18.1947 110.346 17.652 108.85 17.652C107.354 17.652 106.078 18.1947 105.022 19.28C103.995 20.336 103.482 21.8027 103.482 23.68C103.482 25.5573 103.995 27.0533 105.022 28.168C106.078 29.2533 107.354 29.796 108.85 29.796C110.346 29.796 111.607 29.2533 112.634 28.168C113.69 27.0827 114.218 25.6013 114.218 23.724ZM142.145 11.184C145.02 11.184 147.308 12.1227 149.009 14C150.74 15.848 151.605 18.4 151.605 21.656V36H144.125V22.668C144.125 21.0253 143.7 19.7493 142.849 18.84C141.998 17.9307 140.854 17.476 139.417 17.476C137.98 17.476 136.836 17.9307 135.985 18.84C135.134 19.7493 134.709 21.0253 134.709 22.668V36H127.185V11.448H134.709V14.704C135.472 13.6187 136.498 12.768 137.789 12.152C139.08 11.5067 140.532 11.184 142.145 11.184ZM171.441 36.308C168.537 36.308 165.868 35.6333 163.433 34.284C161.028 32.9347 159.107 31.0573 157.669 28.652C156.261 26.2173 155.557 23.4893 155.557 20.468C155.557 17.4467 156.261 14.7333 157.669 12.328C159.107 9.92267 161.028 8.04533 163.433 6.696C165.868 5.34667 168.537 4.672 171.441 4.672C174.345 4.672 177 5.34667 179.405 6.696C181.84 8.04533 183.747 9.92267 185.125 12.328C186.533 14.7333 187.237 17.4467 187.237 20.468C187.237 23.4893 186.533 26.2173 185.125 28.652C183.717 31.0573 181.811 32.9347 179.405 34.284C177 35.6333 174.345 36.308 171.441 36.308ZM171.441 29.444C173.905 29.444 175.871 28.6227 177.337 26.98C178.833 25.3373 179.581 23.1667 179.581 20.468C179.581 17.74 178.833 15.5693 177.337 13.956C175.871 12.3133 173.905 11.492 171.441 11.492C168.948 11.492 166.953 12.2987 165.457 13.912C163.991 15.5253 163.257 17.7107 163.257 20.468C163.257 23.196 163.991 25.3813 165.457 27.024C166.953 28.6373 168.948 29.444 171.441 29.444ZM190.147 20.512C190.147 17.4613 190.807 14.748 192.127 12.372C193.447 9.96667 195.281 8.104 197.627 6.784C200.003 5.43467 202.687 4.76 205.679 4.76C209.346 4.76 212.485 5.728 215.095 7.664C217.706 9.6 219.451 12.24 220.331 15.584H212.059C211.443 14.2933 210.563 13.3107 209.419 12.636C208.305 11.9613 207.029 11.624 205.591 11.624C203.274 11.624 201.397 12.4307 199.959 14.044C198.522 15.6573 197.803 17.8133 197.803 20.512C197.803 23.2107 198.522 25.3667 199.959 26.98C201.397 28.5933 203.274 29.4 205.591 29.4C207.029 29.4 208.305 29.0627 209.419 28.388C210.563 27.7133 211.443 26.7307 212.059 25.44H220.331C219.451 28.784 217.706 31.424 215.095 33.36C212.485 35.2667 209.346 36.22 205.679 36.22C202.687 36.22 200.003 35.56 197.627 34.24C195.281 32.8907 193.447 31.028 192.127 28.652C190.807 26.276 190.147 23.5627 190.147 20.512ZM232.463 15.54C233.343 14.1907 234.443 13.1347 235.763 12.372C237.083 11.58 238.55 11.184 240.163 11.184V19.148H238.095C236.218 19.148 234.81 19.5587 233.871 20.38C232.932 21.172 232.463 22.58 232.463 24.604V36H224.939V11.448H232.463V15.54ZM242.263 23.68C242.263 21.1573 242.733 18.9427 243.671 17.036C244.639 15.1293 245.945 13.6627 247.587 12.636C249.23 11.6093 251.063 11.096 253.087 11.096C254.818 11.096 256.329 11.448 257.619 12.152C258.939 12.856 259.951 13.78 260.655 14.924V11.448H268.179V36H260.655V32.524C259.922 33.668 258.895 34.592 257.575 35.296C256.285 36 254.774 36.352 253.043 36.352C251.049 36.352 249.23 35.8387 247.587 34.812C245.945 33.756 244.639 32.2747 243.671 30.368C242.733 28.432 242.263 26.2027 242.263 23.68ZM260.655 23.724C260.655 21.8467 260.127 20.3653 259.071 19.28C258.045 18.1947 256.783 17.652 255.287 17.652C253.791 17.652 252.515 18.1947 251.459 19.28C250.433 20.336 249.919 21.8027 249.919 23.68C249.919 25.5573 250.433 27.0533 251.459 28.168C252.515 29.2533 253.791 29.796 255.287 29.796C256.783 29.796 258.045 29.2533 259.071 28.168C260.127 27.0827 260.655 25.6013 260.655 23.724ZM272.127 23.724C272.127 21.172 272.64 18.9427 273.667 17.036C274.723 15.1293 276.175 13.6627 278.023 12.636C279.9 11.6093 282.041 11.096 284.447 11.096C287.527 11.096 290.093 11.9027 292.147 13.516C294.229 15.1293 295.593 17.4027 296.239 20.336H288.231C287.556 18.4587 286.251 17.52 284.315 17.52C282.936 17.52 281.836 18.0627 281.015 19.148C280.193 20.204 279.783 21.7293 279.783 23.724C279.783 25.7187 280.193 27.2587 281.015 28.344C281.836 29.4 282.936 29.928 284.315 29.928C286.251 29.928 287.556 28.9893 288.231 27.112H296.239C295.593 29.9867 294.229 32.2453 292.147 33.888C290.064 35.5307 287.497 36.352 284.447 36.352C282.041 36.352 279.9 35.8387 278.023 34.812C276.175 33.7853 274.723 32.3187 273.667 30.412C272.64 28.5053 272.127 26.276 272.127 23.724ZM325.343 11.448L309.943 47.66H301.847L307.479 35.164L297.491 11.448H305.895L311.571 26.804L317.203 11.448H325.343Z" fill="black"/>
</svg>
