<?xml version="1.0" encoding="utf-8"?>
<!-- Generator: Adobe Illustrator 14.0.0, SVG Export Plug-In . SVG Version: 6.00 Build 43363)  -->
<!DOCTYPE svg PUBLIC "-//W3C//DTD SVG 1.1//EN" "http://www.w3.org/Graphics/SVG/1.1/DTD/svg11.dtd">
<svg version="1.1" id="Layer_1" xmlns="http://www.w3.org/2000/svg" xmlns:xlink="http://www.w3.org/1999/xlink" x="0px" y="0px"
	 width="612px" height="792px" viewBox="0 0 612 792" enable-background="new 0 0 612 792" xml:space="preserve">
<g>
	<polygon fill-rule="evenodd" clip-rule="evenodd" points="209,300 401.756,300 401.756,492.756 209,492.756 209,300 	"/>
	<polygon fill-rule="evenodd" clip-rule="evenodd" fill="#FFFFFF" points="252.122,379.035 266.919,387.019 268.708,383.921 
		253.773,375.869 252.122,379.035 	"/>
	<path fill-rule="evenodd" clip-rule="evenodd" fill="#FFFFFF" d="M269.878,381.995c5.024-7.502-0.963-12.25-0.963-12.25
		s-2.891-2.891-7.708-1.721c-4.817,1.17-6.4,5.85-6.4,5.85l2.891,1.583l1.17-1.376c0,0,3.028-4.268,6.882-1.996
		c3.854,2.271,2.478,6.194,1.239,8.396L269.878,381.995L269.878,381.995z"/>
	<path fill-rule="evenodd" clip-rule="evenodd" fill="#FFFFFF" d="M269.534,356.048c0,0-6.014,5.416-0.757,12.113
		c5.024,6.4,11.562,2.271,11.562,2.271l-2.202-3.166c0,0-3.992,1.928-6.401-1.651c-2.526-3.753,0.207-6.882,0.207-6.882
		L269.534,356.048L269.534,356.048z"/>
	<path fill-rule="evenodd" clip-rule="evenodd" fill="#FFFFFF" d="M289.66,345.635c0,0-7.634,2.687-5.356,10.891
		c2.177,7.84,9.8,6.542,9.8,6.542l-0.816-3.77c0,0-4.54-0.278-5.273-3.986c-0.862-4.358,2.837-6.273,2.837-6.273L289.66,345.635
		L289.66,345.635z"/>
	<path fill-rule="evenodd" clip-rule="evenodd" fill="#FFFFFF" d="M296.237,349.854c-1.588-1.229-3.51-1.308-3.51-1.308
		l-0.504-3.571c0,0,3.257-0.49,6.354,1.919L296.237,349.854L296.237,349.854z"/>
	<path fill-rule="evenodd" clip-rule="evenodd" fill="#FFFFFF" d="M301.654,357.541c-1.491,3.725-5.374,4.961-5.374,4.961
		l-1.006-3.723c0,0,1.663-0.988,2.532-2.67L301.654,357.541L301.654,357.541z"/>
	<path fill-rule="evenodd" clip-rule="evenodd" fill="#FFFFFF" d="M271.53,354.741c0,0,6.734-4.35,11.631,2.615
		c4.68,6.656-0.974,11.879-0.974,11.879l-2.396-3.022c0,0,2.76-3.745,0.136-6.792c-3.236-3.757-6.521-1.6-6.521-1.6L271.53,354.741
		L271.53,354.741z"/>
	<polygon fill-rule="evenodd" clip-rule="evenodd" fill="#FFFFFF" points="303.12,343.935 301.605,360.866 304.84,361.141 
		306.561,344.142 303.12,343.935 	"/>
	<polygon fill-rule="evenodd" clip-rule="evenodd" fill="#FFFFFF" points="306.698,352.882 309.107,350.198 316.402,362.311 
		312.342,362.243 306.698,352.882 	"/>
	<polygon fill-rule="evenodd" clip-rule="evenodd" fill="#FFFFFF" points="310.828,348.409 313.649,345.105 318.398,345.519 
		312.686,351.368 310.828,348.409 	"/>
	<polygon fill-rule="evenodd" clip-rule="evenodd" fill="#FFFFFF" points="316.953,362.586 324.937,347.583 328.309,349.166 
		320.05,364.238 316.953,362.586 	"/>
	<polygon fill-rule="evenodd" clip-rule="evenodd" fill="#FFFFFF" points="323.835,362.311 329.548,365.271 327.759,368.299 
		322.184,365.339 323.835,362.311 	"/>
	<polygon fill-rule="evenodd" clip-rule="evenodd" fill="#FFFFFF" points="325.487,359.146 326.933,356.254 332.645,359.283 
		331.062,362.036 325.487,359.146 	"/>
	<polygon fill-rule="evenodd" clip-rule="evenodd" fill="#FFFFFF" points="328.722,353.089 330.305,350.129 336.018,353.227 
		334.297,356.117 328.722,353.089 	"/>
	<polygon fill-rule="evenodd" clip-rule="evenodd" fill="#FFFFFF" points="328.791,369.056 341.041,357.287 343.381,359.696 
		331.406,371.602 328.791,369.056 	"/>
	<path fill-rule="evenodd" clip-rule="evenodd" fill="#FFFFFF" d="M337.669,368.299l2.271-2.271l1.101,1.169
		c0,0,1.445,1.583,2.685,0.482c1.238-1.101,0.619-1.858,0.068-2.684l-1.238-1.239l2.478-2.615l0.551,0.551
		c0,0,4.61,4.68,0.412,8.534C341.98,373.913,337.944,368.918,337.669,368.299L337.669,368.299z"/>
	<polygon fill-rule="evenodd" clip-rule="evenodd" fill="#FFFFFF" points="337.394,370.983 340.146,372.841 337.531,378.209 
		334.916,375.663 337.394,370.983 	"/>
	<path fill-rule="evenodd" clip-rule="evenodd" fill="#FFFFFF" d="M342.143,375.388l1.514,3.028c0,0-2.134,1.79-0.55,3.51
		c1.582,1.721,3.44,0.138,3.303-1.514l3.717,0.207c0,0-0.345,4.473-4.404,5.437c-4.062,0.964-7.021-2.408-6.883-5.712
		C338.977,377.04,342.143,375.388,342.143,375.388L342.143,375.388z"/>
	<path fill-rule="evenodd" clip-rule="evenodd" fill="#FFFFFF" d="M346.341,378.072c0,0-0.413-3.373,2.202-5.024
		c2.615-1.651,6.606,0,7.364,2.271c0.757,2.271,0.688,5.574-2.822,6.745l-1.445-2.753c0,0,1.996-0.895,0.964-2.546
		c-1.032-1.652-3.717-0.069-2.959,1.376L346.341,378.072L346.341,378.072z"/>
	<path fill-rule="evenodd" clip-rule="evenodd" fill="#FFFFFF" d="M308.14,370.142c0.019-0.153,0.028-0.309,0.028-0.467
		c0-2.079-1.685-3.764-3.763-3.764c-2.078,0-3.764,1.685-3.764,3.764c0,2.078,1.686,3.764,3.764,3.764
		c0.634,0,1.232-0.158,1.757-0.435l1.237,1.534c-0.871,0.538-1.896,0.847-2.994,0.847c-3.154,0-5.71-2.557-5.71-5.71
		c0-3.154,2.557-5.71,5.71-5.71c3.153,0,5.709,2.556,5.709,5.71c0,0.58-0.086,1.14-0.247,1.667L308.14,370.142L308.14,370.142z"/>
	<path fill-rule="evenodd" clip-rule="evenodd" fill="#FFFFFF" d="M306.031,371.894l2.354,2.104
		c0.327,0.317,0.851,0.309,1.168-0.019s0.309-0.851-0.019-1.168l0,0l-2.354-2.104l0,0c-0.328-0.317-0.851-0.309-1.168,0.019
		C305.695,371.054,305.704,371.576,306.031,371.894L306.031,371.894z"/>
	<path fill-rule="evenodd" clip-rule="evenodd" fill="#FFFFFF" d="M307.357,396.906c5.899-4.678,6.387-10.125,6.405-10.381
		l-0.021,0.132c1.641-6.948-2.667-11.825-2.852-12.03c-0.306-0.339-0.828-0.366-1.167-0.06c-0.338,0.306-0.365,0.828-0.06,1.167
		l-0.001-0.001c0.039,0.044,3.908,4.461,2.472,10.545l-0.016,0.065l-0.005,0.067c-0.016,0.209-0.355,4.413-4.757,8.396V396.906
		L307.357,396.906z"/>
	<path fill-rule="evenodd" clip-rule="evenodd" fill="#FFFFFF" d="M314.641,382.063h2.891c0,0,1.102,0.207,1.102,1.308
		c0,1.514-1.102,1.308-1.102,1.308h-2.821C314.71,384.679,314.778,383.027,314.641,382.063L314.641,382.063z"/>
	<path fill-rule="evenodd" clip-rule="evenodd" fill="#FFFFFF" d="M311.764,382.201h-5.137l-0.135-3.131h-3.551l-0.22,3.131h-11.714
		c0,0-1.101,0.138-1.101,1.308c0,1.514,1.101,1.17,1.101,1.17h11.746l-0.643,31.313c2.73,0.965,5.139,2.203,5.139,2.203
		l-0.551-33.517h5.106C312.149,383.165,311.764,382.201,311.764,382.201L311.764,382.201z"/>
	<path fill-rule="evenodd" clip-rule="evenodd" fill="#FFFFFF" d="M287.359,385.438c0.914,0,1.654-0.741,1.654-1.655
		c0-0.914-0.74-1.654-1.654-1.654c-0.914,0-1.655,0.741-1.655,1.654C285.705,384.698,286.446,385.438,287.359,385.438
		L287.359,385.438z"/>
	<path fill-rule="evenodd" clip-rule="evenodd" fill="#FFFFFF" d="M321.015,385.1c0.914,0,1.654-0.741,1.654-1.655
		c0-0.914-0.74-1.655-1.654-1.655s-1.654,0.741-1.654,1.655C319.36,384.358,320.101,385.1,321.015,385.1L321.015,385.1z"/>
	<path fill-rule="evenodd" clip-rule="evenodd" fill="#FFFFFF" d="M302.087,389.015c-2.083-0.625-8.469-1.796-8.727-1.844
		c-0.448-0.084-0.879,0.212-0.963,0.66c-0.084,0.449,0.212,0.88,0.66,0.964c0.063,0.012,7.072,1.41,9.071,2.01L302.087,389.015
		L302.087,389.015z"/>
	<path fill-rule="evenodd" clip-rule="evenodd" fill="#FFFFFF" d="M307.842,413.955c9.104-4.799,7.494-11.756,6.415-14.523
		c-0.71-1.82-2.218-3.444-3.813-4.75c0,0,0.724-0.789,1.07-1.301c1.805,1.525,3.469,3.365,4.282,5.451
		c1.24,3.18,2.74,11.793-7.954,16.816V413.955L307.842,413.955z"/>
	<path fill-rule="evenodd" clip-rule="evenodd" fill="#FFFFFF" d="M309.464,391.82c-1.103-0.809-2.03-1.309-2.118-1.36l-0.011,2.038
		c0.241,0.151,0.59,0.376,1.005,0.662C308.34,393.159,309.132,392.423,309.464,391.82L309.464,391.82z"/>
	<path fill-rule="evenodd" clip-rule="evenodd" fill="#FFFFFF" d="M300.229,417.988c-0.125,0.1-3.258,2.824-5.505,6.125l1.715,0.396
		c2.101-3.086,5.07-5.811,5.098-5.832L300.229,417.988L300.229,417.988z"/>
	<path fill-rule="evenodd" clip-rule="evenodd" fill="#FFFFFF" d="M287.222,413.584l-9.36-2.891l-0.551,10.324
		c0,0,1.514-1.102,3.166-1.033s2.684,1.17,3.373,1.859c0.688,0.688,1.996,2.889,7.777,5.711s14.521,4.061,22.092,1.377
		c0,0-0.413-2.203-1.652-3.51c0,0-1.996,0.207-4.68,0.275v-4.24c0,0-2.86-1.842-5.299-2.574v6.676c0,0-4.611,0.689-11.287-2.545
		c-6.676-3.234-4.956-7.365-4.611-7.846C286.189,415.168,287.015,413.859,287.222,413.584L287.222,413.584z"/>
	<path fill-rule="evenodd" clip-rule="evenodd" fill="#FFFFFF" d="M316.54,428.105c0.424-0.178,1.184-0.492,1.583-0.688
		c5.781-2.822,7.089-5.023,7.777-5.713c0.688-0.688,1.721-1.789,3.372-1.857s3.166,1.031,3.166,1.031l-0.551-10.322l-9.359,2.891
		c0.206,0.275,1.032,1.582,1.032,1.582c0.344,0.482,2.064,4.611-4.611,7.846c-1.377,0.668-3.088,1.277-4.268,1.652
		C314.682,424.527,315.783,425.422,316.54,428.105L316.54,428.105z"/>
	<path fill-rule="evenodd" clip-rule="evenodd" fill="#FFFFFF" d="M277.557,409.764c-0.142-0.092-3.458-2.316-3.274-8.881
		c0,0,0.016-0.588,0.01-0.592l-0.479-0.342c-0.164-0.115-3.982-2.926-1.087-8.894l0.308-1.016h13.843c0,0,4.129,0.558,4.129,5.238
		s0,26.611,0,26.611s-5.026-1.9-4.313-5.23c0.551-2.568,2.203-3.486,2.203-3.486L277.557,409.764L277.557,409.764z"/>
	<path fill-rule="evenodd" clip-rule="evenodd" fill="#FFFFFF" d="M332.343,409.129c0.142-0.092,3.458-2.316,3.274-8.881
		c0,0-0.017-0.588-0.01-0.592l0.479-0.342c0.164-0.115,3.981-2.927,1.087-8.895l-0.309-0.38h-13.843c0,0-4.129-0.077-4.129,4.603
		c0,4.68,0.011,27.063,0.011,27.063s4.659-1.809,3.945-5.139c-0.551-2.568-1.927-3.303-1.927-3.303L332.343,409.129L332.343,409.129
		z"/>
	<path fill-rule="evenodd" clip-rule="evenodd" fill="#FFFFFF" d="M294.792,429.619c-0.037,0.609-0.112,2.121-0.009,2.844
		c0,0,3.312,1.563,9.712,1.563s8.306-0.742,10.553-1.473c-0.083-3.57-1.444-6.627-4.162-9.346c-2.604-2.604-12.836-6.75-12.99-6.814
		c-1.665-0.807-3.72-2.578-4.494-5.137c-0.59-1.951-0.3-4.004,0.839-5.938c2.013-3.414,5.512-5.793,7.687-7.088v1.871
		c-1.966,1.268-4.649,3.316-6.263,6.057c-0.911,1.545-1.141,3.1-0.681,4.619c0.62,2.049,2.383,3.432,3.582,4.105
		c1.526,0.857,10.649,4.316,13.489,7.156c2.962,2.963,4.48,6.301,4.637,10.195c0,0,1.294-0.412,1.913-0.963v-2.684
		c0,0,0.826-0.482,1.377-0.895c0,0,3.693-2.043,7.846-6.125c0,0,1.032-1.859,5.506,0.826c0,0,0.138-6.814-0.481-12.184
		c0,0,3.923-2.408,3.716-9.771c0,0,4.887-3.449,1.515-10.4l38.266,0.051c0,0,5.023-0.25,2.546,4.43
		c-2.478,4.679-5.781,4.13-7.983,4.13s-25.602,0-25.602,0s-1.578-0.203-1.652,0.688c-0.068,0.826,1.17,0.574,1.377,0.574h8.224
		h10.221c0,0,5.024,0.389,2.547,5.068c-2.284,4.314-4.989,3.916-7.915,3.916c-2.202,0-2.787,0-2.787,0h-14.157
		c0,0-1.577-0.219-1.651,0.674c-0.069,0.824,1.17,0.572,1.376,0.572l0.736,0.023h10.221c0,0,5.023,0.391,2.546,5.07
		s-5.781,4.129-7.983,4.129s-2.787,0-2.787,0s-6.779,0.068-7.33,0.068c-0.55,0-1.101,0.068-1.101,0.619s1.032,0.482,1.032,0.482
		h2.615h2.202c0,0,5.024,0.373,2.547,4.844s-5.781,3.943-7.983,3.943l0.274,2.088l7.709,1.65c0,0-1.515,2.064-5.093,5.025
		c-3.579,2.959-7.227,5.16-8.81,6.193s-3.143,1.652-5.276-3.027c-3.166,2.064-9.383,4.748-20.601,4.748s-18.582-4.291-18.582-4.291
		c-2.134,4.682-3.51,4.016-5.093,2.982c-1.583-1.031-5.23-3.234-8.81-6.193c-3.579-2.959-5.093-5.023-5.093-5.023l7.295-1.377
		l0.62-2.547c-2.202,0-5.417,1.09-7.915-3.369c-2.546-4.545,2.547-4.844,2.547-4.844h2.202h2.615c0,0,1.032,0.068,1.032-0.482
		c0-0.549-0.551-0.619-1.101-0.619s-7.33-0.068-7.33-0.068s-0.585,0-2.788,0c-2.202,0-5.505,0.551-7.983-4.129
		c-2.478-4.68,2.547-5.078,2.547-5.078h10.22h0.736c0.207,0,1.431-0.084,1.376-0.588c-0.097-0.891-1.652-0.674-1.652-0.674h-14.157
		c0,0-0.585,0-2.788,0c-2.925,0-5.631,0.398-7.915-3.916c-2.478-4.68,2.546-5.068,2.546-5.068h10.22h8.224
		c0.207,0,1.445,0.252,1.376-0.574c-0.074-0.891-1.651-0.688-1.651-0.688s-23.4,0-25.603,0c-2.202,0-5.505,0.551-7.983-4.13
		c-2.478-4.68,2.546-5.233,2.546-5.233l38.265-0.051c-3.372,6.951,1.445,10.812,1.445,10.812c-0.206,7.365,3.786,9.842,3.786,9.842
		c-0.62,5.369-0.62,12.113-0.62,12.113c3.854-3.027,5.575-1.309,5.575-1.309c3.648,3.58,7.777,6.127,7.777,6.127
		c0.551,0.412,1.376,0.895,1.376,0.895l0.12,3.094c0,0,0.981,0.348,1.876,0.553c-0.098-1.082-0.014-2.943,0-3.166
		C293.072,429,294.309,429.531,294.792,429.619L294.792,429.619z"/>
	<path fill-rule="evenodd" clip-rule="evenodd" d="M280.064,437.26c0,0,8.947,7.707,24.432,7.707
		c15.485,0,24.707-7.846,24.707-7.846l-5.23-7.57c0,0-6.882,5.506-18.788,5.506s-19.477-5.299-19.477-5.299L280.064,437.26
		L280.064,437.26z"/>
	<polygon fill-rule="evenodd" clip-rule="evenodd" fill="#FFFFFF" points="287.672,439.965 290.229,433.334 291.128,433.68 
		288.875,439.521 292.234,440.816 291.93,441.607 287.672,439.965 	"/>
	<path fill-rule="evenodd" clip-rule="evenodd" fill="#FFFFFF" d="M293.774,439.783l0.886,0.186c-0.061,0.398-0.034,0.738,0.08,1.02
		c0.217,0.525,0.72,0.871,1.51,1.035c0.354,0.072,0.687,0.09,0.998,0.049c0.603-0.08,0.957-0.371,1.062-0.877
		c0.079-0.379,0.017-0.674-0.187-0.885c-0.207-0.207-0.555-0.422-1.042-0.646l-0.898-0.408c-0.587-0.268-0.991-0.51-1.212-0.73
		c-0.382-0.383-0.513-0.863-0.393-1.441c0.13-0.625,0.453-1.094,0.969-1.404c0.516-0.313,1.17-0.385,1.963-0.221
		c0.729,0.15,1.313,0.457,1.75,0.914c0.437,0.459,0.575,1.074,0.415,1.848l-0.886-0.184c0.03-0.383-0.012-0.689-0.125-0.92
		c-0.212-0.424-0.663-0.707-1.351-0.85c-0.556-0.115-0.979-0.082-1.271,0.102s-0.47,0.43-0.534,0.74
		c-0.071,0.34,0.02,0.619,0.271,0.836c0.165,0.141,0.561,0.354,1.187,0.643l0.93,0.426c0.448,0.205,0.781,0.426,0.999,0.666
		c0.375,0.418,0.498,0.936,0.369,1.555c-0.16,0.77-0.555,1.264-1.184,1.479c-0.63,0.215-1.316,0.246-2.058,0.092
		c-0.866-0.18-1.497-0.541-1.895-1.086C293.725,441.18,293.608,440.533,293.774,439.783L293.774,439.783z"/>
	<path fill-rule="evenodd" clip-rule="evenodd" fill="#FFFFFF" d="M302.586,438.406c-0.101-0.184-0.148-0.375-0.141-0.57
		c0.005-0.146,0.045-0.277,0.121-0.398c0.147-0.232,0.4-0.344,0.758-0.33c0.235,0.008,0.419,0.092,0.553,0.248
		c0.133,0.156,0.196,0.34,0.188,0.549c-0.01,0.268-0.114,0.508-0.312,0.721c-0.121,0.131-0.339,0.299-0.653,0.504
		C302.858,438.832,302.688,438.592,302.586,438.406L302.586,438.406z M301.868,442.525c-0.268-0.213-0.395-0.508-0.381-0.885
		c0.013-0.35,0.13-0.641,0.352-0.873c0.145-0.156,0.45-0.377,0.916-0.664l1.534,2.018c-0.146,0.197-0.352,0.373-0.615,0.529
		c-0.264,0.154-0.575,0.225-0.933,0.213C302.427,442.852,302.137,442.738,301.868,442.525l-0.724-2.254
		c-0.338,0.35-0.518,0.793-0.538,1.332c-0.019,0.5,0.133,0.955,0.453,1.365c0.321,0.41,0.85,0.629,1.589,0.656
		c0.5,0.018,0.945-0.082,1.337-0.301c0.225-0.123,0.474-0.324,0.749-0.602l0.637,0.838l1.122,0.041l-1.206-1.58
		c-0.003,0.08,0.085-0.084,0.265-0.496s0.305-0.844,0.377-1.297l-0.827-0.029c-0.044,0.229-0.085,0.404-0.124,0.531
		c-0.039,0.125-0.106,0.316-0.202,0.57l-1.24-1.596c0.403-0.246,0.692-0.467,0.867-0.66c0.299-0.332,0.458-0.725,0.474-1.178
		c0.014-0.391-0.112-0.73-0.379-1.021c-0.267-0.291-0.647-0.445-1.141-0.463c-0.519-0.02-0.938,0.115-1.259,0.406
		c-0.32,0.289-0.489,0.664-0.506,1.121c-0.008,0.221,0.034,0.449,0.127,0.688c0.093,0.24,0.283,0.537,0.57,0.893
		c-0.557,0.309-0.939,0.57-1.147,0.781L301.868,442.525L301.868,442.525z"/>
	<path fill-rule="evenodd" clip-rule="evenodd" fill="#FFFFFF" d="M310.23,435.869c0.893-0.117,1.616,0.025,2.171,0.43
		c0.555,0.406,0.899,0.904,1.032,1.494l-0.93,0.123c-0.166-0.439-0.424-0.771-0.774-0.996c-0.35-0.223-0.81-0.297-1.379-0.221
		c-0.694,0.092-1.223,0.41-1.585,0.953c-0.362,0.545-0.477,1.32-0.343,2.328c0.109,0.824,0.391,1.469,0.844,1.932
		c0.453,0.461,1.063,0.643,1.827,0.541c0.703-0.094,1.203-0.436,1.499-1.023c0.157-0.311,0.254-0.705,0.288-1.182l0.931-0.123
		c0.016,0.754-0.178,1.412-0.578,1.977c-0.479,0.678-1.194,1.08-2.144,1.207c-0.819,0.107-1.539-0.049-2.161-0.471
		c-0.819-0.559-1.32-1.523-1.502-2.891c-0.137-1.041,0.024-1.93,0.487-2.668C308.413,436.479,309.186,436.008,310.23,435.869
		L310.23,435.869z"/>
	<path fill-rule="evenodd" clip-rule="evenodd" fill="#FFFFFF" d="M316.896,440.461c-0.55-0.385-0.95-0.951-1.201-1.697
		c-0.313-0.932-0.331-1.711-0.052-2.338s0.767-1.059,1.464-1.293c0.719-0.24,1.366-0.189,1.943,0.154
		c0.577,0.342,0.999,0.91,1.265,1.703c0.253,0.748,0.296,1.471,0.131,2.168c-0.165,0.699-0.65,1.182-1.454,1.453
		C318.145,440.896,317.445,440.846,316.896,440.461L316.896,440.461z M314.621,436.455c-0.234,0.801-0.198,1.656,0.108,2.568
		c0.339,1.008,0.885,1.754,1.636,2.236c0.824,0.484,1.754,0.553,2.791,0.205c1.109-0.375,1.832-1.053,2.168-2.037
		c0.286-0.838,0.261-1.762-0.078-2.768c-0.313-0.93-0.793-1.617-1.44-2.063c-0.829-0.572-1.838-0.658-3.027-0.258
		C315.642,434.723,314.922,435.428,314.621,436.455L314.621,436.455z"/>
	<path fill-rule="evenodd" clip-rule="evenodd" d="M276.21,427.762l5.506,4.543l-3.716,5.23c0,0-1.17,1.789,0.344,2.752
		c1.515,0.965,3.854,2.479,3.854,2.479s0.688,0.48,0.137,1.238c-0.55,0.758-1.583,0.068-1.583,0.068s-7.295-4.266-12.25-9.771
		l6.263-1.584L276.21,427.762L276.21,427.762z"/>
	<path fill-rule="evenodd" clip-rule="evenodd" d="M333.493,427.303l-5.506,4.543l3.717,5.23c0,0,1.17,1.789-0.344,2.752
		c-1.515,0.965-3.854,2.479-3.854,2.479s-0.688,0.482-0.138,1.238c0.551,0.758,1.583,0.068,1.583,0.068s7.295-4.266,12.251-9.771
		l-6.264-1.584L333.493,427.303L333.493,427.303z"/>
	<polygon fill-rule="evenodd" clip-rule="evenodd" fill="#FFFFFF" points="306.423,377.59 306.423,376.351 302.982,376.351 
		302.982,377.59 306.423,377.59 	"/>
	<path fill-rule="evenodd" clip-rule="evenodd" fill="#FFFFFF" d="M323.629,439.328c0.269,0,0.486-0.217,0.486-0.486
		c0-0.268-0.218-0.486-0.486-0.486s-0.486,0.219-0.486,0.486C323.143,439.111,323.36,439.328,323.629,439.328L323.629,439.328z"/>
</g>
</svg>
